<svg xmlns="http://www.w3.org/2000/svg" xmlns:xlink="http://www.w3.org/1999/xlink" width="95" height="94" viewBox="0 0 95 94">
  <defs>
    <linearGradient id="linear-gradient" x1="0.132" y1="0.923" x2="0.91" y2="0.099" gradientUnits="objectBoundingBox">
      <stop offset="0" stop-color="#6e07b5"/>
      <stop offset="1" stop-color="#831bcc"/>
    </linearGradient>
    <filter id="Path_156" x="0" y="0" width="95" height="94" filterUnits="userSpaceOnUse">
      <feOffset dy="3" input="SourceAlpha"/>
      <feGaussianBlur stdDeviation="3" result="blur"/>
      <feFlood flood-opacity="0.161"/>
      <feComposite operator="in" in2="blur"/>
      <feComposite in="SourceGraphic"/>
    </filter>
  </defs>
  <g id="Group_304" data-name="Group 304" transform="translate(-267 -1147)">
    <g transform="matrix(1, 0, 0, 1, 267, 1147)" filter="url(#Path_156)">
      <path id="Path_156-2" data-name="Path 156" d="M10,0H67A10,10,0,0,1,77,10V66A10,10,0,0,1,67,76H10A10,10,0,0,1,0,66V10A10,10,0,0,1,10,0Z" transform="translate(9 6)" fill="url(#linear-gradient)"/>
    </g>
    <g id="Group_315" data-name="Group 315" transform="translate(4.747 5)">
      <g id="Group_312" data-name="Group 312" transform="translate(292.856 1178.069)">
        <g id="Group_153" data-name="Group 153" transform="translate(0 1)">
          <g id="Group_152" data-name="Group 152">
            <path id="Path_25" data-name="Path 25" d="M317.324,265.925l-.409-.456,10.511-9.438,9.736,2.115L347.7,246.409l.456.41-10.781,12L327.6,256.7Z" transform="translate(-316.914 -246.409)" fill="rgba(0,0,0,0.16)" stroke="rgba(0,0,0,0.16)" stroke-width="5"/>
          </g>
        </g>
      </g>
      <g id="Group_156" data-name="Group 156" transform="translate(321.954 1176.335)">
        <g id="Group_155" data-name="Group 155">
          <path id="Path_26" data-name="Path 26" d="M352.167,248.363l-2.973-2.851,3.838-1.027Z" transform="translate(-349.194 -244.486)" fill="rgba(0,0,0,0.16)" stroke="rgba(0,0,0,0.16)" stroke-width="5"/>
        </g>
      </g>
    </g>
    <g id="Group_314" data-name="Group 314" transform="translate(4.747 4)">
      <g id="Group_312-2" data-name="Group 312" transform="translate(292.856 1178.069)">
        <g id="Group_153-2" data-name="Group 153" transform="translate(0 0)">
          <g id="Group_152-2" data-name="Group 152">
            <path id="Path_25-2" data-name="Path 25" d="M317.324,265.925l-.409-.456,10.511-9.438,9.736,2.115L347.7,246.409l.456.41-10.781,12L327.6,256.7Z" transform="translate(-316.914 -246.409)" fill="#fff" stroke="#fff" stroke-width="5"/>
          </g>
        </g>
      </g>
      <g id="Group_156-2" data-name="Group 156" transform="translate(321.954 1176.335)">
        <g id="Group_155-2" data-name="Group 155">
          <path id="Path_26-2" data-name="Path 26" d="M352.167,248.363l-2.973-2.851,3.838-1.027Z" transform="translate(-349.194 -244.486)" fill="#fff" stroke="#fff" stroke-width="5"/>
        </g>
      </g>
    </g>
  </g>
</svg>
