<svg xmlns="http://www.w3.org/2000/svg" xmlns:xlink="http://www.w3.org/1999/xlink" width="95" height="94" viewBox="0 0 95 94">
  <defs>
    <linearGradient id="linear-gradient" x1="0.132" y1="0.923" x2="0.91" y2="0.099" gradientUnits="objectBoundingBox">
      <stop offset="0" stop-color="#6e07b5"/>
      <stop offset="1" stop-color="#831bcc"/>
    </linearGradient>
    <filter id="Path_156" x="0" y="0" width="95" height="94" filterUnits="userSpaceOnUse">
      <feOffset dy="3" input="SourceAlpha"/>
      <feGaussianBlur stdDeviation="3" result="blur"/>
      <feFlood flood-opacity="0.161"/>
      <feComposite operator="in" in2="blur"/>
      <feComposite in="SourceGraphic"/>
    </filter>
    <filter id="Path_69" x="23.16" y="19.104" width="33.759" height="39.84" filterUnits="userSpaceOnUse">
      <feOffset dy="3" input="SourceAlpha"/>
      <feGaussianBlur stdDeviation="3" result="blur-2"/>
      <feFlood flood-opacity="0.161"/>
      <feComposite operator="in" in2="blur-2"/>
      <feComposite in="SourceGraphic"/>
    </filter>
    <filter id="Path_71" x="43.356" y="36.419" width="28.791" height="29.353" filterUnits="userSpaceOnUse">
      <feOffset dy="3" input="SourceAlpha"/>
      <feGaussianBlur stdDeviation="3" result="blur-3"/>
      <feFlood flood-opacity="0.161"/>
      <feComposite operator="in" in2="blur-3"/>
      <feComposite in="SourceGraphic"/>
    </filter>
    <filter id="Path_72" x="42.205" y="40.232" width="27.898" height="26.646" filterUnits="userSpaceOnUse">
      <feOffset dy="3" input="SourceAlpha"/>
      <feGaussianBlur stdDeviation="3" result="blur-4"/>
      <feFlood flood-opacity="0.161"/>
      <feComposite operator="in" in2="blur-4"/>
      <feComposite in="SourceGraphic"/>
    </filter>
  </defs>
  <g id="Group_321" data-name="Group 321" transform="translate(-636 -1171)">
    <g id="Group_304" data-name="Group 304" transform="translate(369 24)">
      <g transform="matrix(1, 0, 0, 1, 267, 1147)" filter="url(#Path_156)">
        <path id="Path_156-2" data-name="Path 156" d="M10,0H67A10,10,0,0,1,77,10V66A10,10,0,0,1,67,76H10A10,10,0,0,1,0,66V10A10,10,0,0,1,10,0Z" transform="translate(9 6)" fill="url(#linear-gradient)"/>
      </g>
    </g>
    <g id="Group_310" data-name="Group 310" transform="translate(668.16 1196.104)">
      <path id="Path_63" data-name="Path 63" d="M221.992,243.767l2.964,1.977a.817.817,0,0,0,1.155-.259l6.511-10.91-3.861-2.175-6.989,10.227A.816.816,0,0,0,221.992,243.767Z" transform="translate(-206.489 -206.928)" fill="#fff"/>
      <g id="Group_248" data-name="Group 248">
        <path id="Path_64" data-name="Path 64" d="M215.237,226.71l1.021.7,4.125-6.011-1.02-.694a3.449,3.449,0,0,0-4.69,1.213h0A3.423,3.423,0,0,0,215.237,226.71Z" transform="translate(-210.323 -213.023)" fill="#fff"/>
        <path id="Path_65" data-name="Path 65" d="M212.3,236.1l18.973,2.881,4.334-6.315-9.574-16.576Z" transform="translate(-211.154 -215.083)" fill="#fff"/>
        <path id="Path_66" data-name="Path 66" d="M213.105,231.808l17.76,2.617,1.727-2.517-14.947-6.717Z" transform="translate(-210.75 -210.531)" fill="#fff"/>
        <path id="Path_67" data-name="Path 67" d="M230.447,236.3h0a2.413,2.413,0,0,0,3.28-.849l.771-1.123a2.393,2.393,0,0,0-.4-3.354h0a2.413,2.413,0,0,0-3.28.849l-.769,1.123A2.394,2.394,0,0,0,230.447,236.3Z" transform="translate(-202.528 -207.813)" fill="#fff"/>
        <path id="Path_68" data-name="Path 68" d="M230.823,231.507l-.769,1.12a2.244,2.244,0,1,0,3.675,2.5l.769-1.12a2.271,2.271,0,0,0,.157-.264,2.2,2.2,0,1,1-3.643-2.482A2.528,2.528,0,0,0,230.823,231.507Z" transform="translate(-202.528 -207.495)" fill="#fff"/>
        <g transform="matrix(1, 0, 0, 1, -32.16, -25.1)" filter="url(#Path_69)">
          <path id="Path_69-2" data-name="Path 69" d="M212.06,237.054h0a1.416,1.416,0,0,0,1.926-.5l6.892-10.044L227,217.589a1.406,1.406,0,0,0-.231-1.969h0a1.418,1.418,0,0,0-1.927.5l-13.014,18.966A1.406,1.406,0,0,0,212.06,237.054Z" transform="translate(-179.37 -190.31)" fill="#fff"/>
        </g>
        <path id="Path_70" data-name="Path 70" d="M227.1,215.793l-10.839,15.795a1.417,1.417,0,0,1-1.926.5,1.126,1.126,0,0,1-.333-.361l-2.176,3.171a1.318,1.318,0,1,0,2.158,1.471L227,217.4A1.494,1.494,0,0,0,227.1,215.793Z" transform="translate(-211.535 -215.229)" fill="#fff"/>
        <g transform="matrix(1, 0, 0, 1, -32.16, -25.1)" filter="url(#Path_71)">
          <path id="Path_71-2" data-name="Path 71" d="M226.6,236.861l1.228.837a4.309,4.309,0,0,0,5.857-1.516L234.9,234.4a4.274,4.274,0,0,0-.706-5.989l-1.228-.837a4.305,4.305,0,0,0-5.855,1.516l-1.219,1.777A4.274,4.274,0,0,0,226.6,236.861Z" transform="translate(-172.64 -184.54)" fill="#fff"/>
        </g>
        <g transform="matrix(1, 0, 0, 1, -32.16, -25.1)" filter="url(#Path_72)">
          <path id="Path_72-2" data-name="Path 72" d="M226.342,229.5l-1.828,2.662a1.354,1.354,0,0,0,.223,1.9l5.713,3.894a1.365,1.365,0,0,0,1.854-.48l1.827-2.662a1.365,1.365,0,0,1-1.854.48l-5.713-3.894A1.353,1.353,0,0,1,226.342,229.5Z" transform="translate(-173.03 -183.27)" fill="#fff"/>
        </g>
      </g>
    </g>
  </g>
</svg>
