<svg xmlns="http://www.w3.org/2000/svg" width="28.384" height="28.377" viewBox="0 0 28.384 28.377">
  <path id="instagram" d="M14.12,38.738A7.276,7.276,0,1,0,21.4,46.014,7.264,7.264,0,0,0,14.12,38.738Zm0,12.006a4.73,4.73,0,1,1,4.73-4.73A4.739,4.739,0,0,1,14.12,50.744Zm9.27-12.3a1.7,1.7,0,1,1-1.7-1.7A1.693,1.693,0,0,1,23.39,38.44Zm4.819,1.722a8.4,8.4,0,0,0-2.292-5.946,8.453,8.453,0,0,0-5.946-2.292c-2.343-.133-9.365-.133-11.708,0a8.441,8.441,0,0,0-5.946,2.286A8.426,8.426,0,0,0,.025,40.156c-.133,2.343-.133,9.365,0,11.708A8.4,8.4,0,0,0,2.317,57.81,8.464,8.464,0,0,0,8.263,60.1c2.343.133,9.365.133,11.708,0a8.4,8.4,0,0,0,5.946-2.292,8.453,8.453,0,0,0,2.292-5.946C28.342,49.522,28.342,42.506,28.209,40.163ZM25.182,54.378a4.789,4.789,0,0,1-2.7,2.7c-1.868.741-6.3.57-8.365.57s-6.5.165-8.365-.57a4.789,4.789,0,0,1-2.7-2.7c-.741-1.868-.57-6.3-.57-8.365s-.165-6.5.57-8.365a4.789,4.789,0,0,1,2.7-2.7c1.868-.741,6.3-.57,8.365-.57s6.5-.165,8.365.57a4.789,4.789,0,0,1,2.7,2.7c.741,1.868.57,6.3.57,8.365S25.923,52.517,25.182,54.378Z" transform="translate(0.075 -31.825)" fill="#3c0170"/>
</svg>
