<svg xmlns="http://www.w3.org/2000/svg" xmlns:xlink="http://www.w3.org/1999/xlink" width="1366" height="370" viewBox="0 0 1366 370">
  <defs>
    <clipPath id="clip-path">
      <rect id="Rectangle_114" data-name="Rectangle 114" width="1366" height="370" fill="none"/>
    </clipPath>
    <clipPath id="clip-path-2">
      <rect id="Rectangle_113" data-name="Rectangle 113" width="1366" height="813" fill="none"/>
    </clipPath>
  </defs>
  <g id="Group_338" data-name="Group 338" transform="translate(-3106 -1263)">
    <rect id="Rectangle_119" data-name="Rectangle 119" width="1366" height="370" transform="translate(3106 1263)" fill="#fff"/>
    <g id="Mask_Group_4" data-name="Mask Group 4" transform="translate(3106 1263)" clip-path="url(#clip-path)">
      <g id="Mask_Group_3" data-name="Mask Group 3" clip-path="url(#clip-path-2)">
        <g id="Group_333" data-name="Group 333" transform="translate(-251 0.46)">
          <path id="Path_163" data-name="Path 163" d="M1799.169,162.532c-39.761-3.92-254.468-217.565-499-148.963S894.621,235.054,604.362,235.054,0,13.569,0,13.569v892.78H1799.169Z" transform="translate(0 0)" fill="#3c0170"/>
          <path id="Path_164" data-name="Path 164" d="M1799.169,162.532c-39.761-3.92-254.468-217.565-499-148.963S894.621,235.054,604.362,235.054,0,13.569,0,13.569v892.78H1799.169Z" transform="translate(51 31)" fill="#6e07b5"/>
          <path id="Path_165" data-name="Path 165" d="M1799.169,162.532c-39.761-3.92-254.468-217.565-499-148.963S894.621,235.054,604.362,235.054,0,13.569,0,13.569v892.78H1799.169Z" transform="translate(85 80)" fill="#3c0170"/>
        </g>
      </g>
    </g>
  </g>
</svg>
