<svg xmlns="http://www.w3.org/2000/svg" width="26.467" height="16.87" viewBox="0 0 26.467 16.87">
  <path id="behance" d="M10.547,82.755a3.45,3.45,0,0,0,2.2-3.364c0-3.209-2.391-3.991-5.151-3.991H0V91.511H7.81c2.928,0,5.678-1.4,5.678-4.678a3.882,3.882,0,0,0-2.941-4.078ZM3.541,78.15H6.864c1.277,0,2.428.359,2.428,1.841,0,1.368-.9,1.918-2.159,1.918H3.541V78.15ZM7.328,88.774H3.541V84.337H7.4c1.559,0,2.546.65,2.546,2.3C9.947,88.265,8.769,88.774,7.328,88.774Zm16.3-10.942H17.093V76.246h6.533Zm2.559,8.015c0-3.45-2.018-6.328-5.678-6.328a5.862,5.862,0,0,0-5.969,6.173c0,3.632,2.287,6.123,5.969,6.123a5.2,5.2,0,0,0,5.46-3.923H23.139a2.654,2.654,0,0,1-2.532,1.523,2.638,2.638,0,0,1-2.864-2.969h8.415C26.171,86.256,26.185,86.051,26.185,85.847Zm-8.437-1.418a2.5,2.5,0,0,1,2.659-2.491,2.388,2.388,0,0,1,2.555,2.491Z" transform="matrix(1, -0.017, 0.017, 1, -1.316, -74.932)" fill="#3c0170"/>
</svg>
