<svg xmlns="http://www.w3.org/2000/svg" width="30.389" height="30.389" viewBox="0 0 30.389 30.389">
  <path id="dribbble" d="M22.936,8A14.936,14.936,0,1,0,37.872,22.936,14.953,14.953,0,0,0,22.936,8Zm9.875,6.888a12.7,12.7,0,0,1,2.881,7.947,29.814,29.814,0,0,0-8.884-.411c-.346-.846-.673-1.59-1.121-2.506A16.994,16.994,0,0,0,32.811,14.888Zm-1.418-1.475a14.4,14.4,0,0,1-6.686,4.608,68.1,68.1,0,0,0-4.76-7.469A12.725,12.725,0,0,1,31.393,13.413Zm-13.881-2a81.4,81.4,0,0,1,4.73,7.378,47.586,47.586,0,0,1-11.794,1.554A12.8,12.8,0,0,1,17.512,11.41ZM10.178,22.956c0-.13,0-.26.007-.39A47.061,47.061,0,0,0,23.3,20.75c.365.715.714,1.44,1.034,2.165a19.761,19.761,0,0,0-10.873,8.571A12.707,12.707,0,0,1,10.178,22.956ZM15.105,33.02c1.333-2.724,4.949-6.241,10.093-8A53.03,53.03,0,0,1,27.92,34.7,12.732,12.732,0,0,1,15.105,33.02Zm14.959.511a55.064,55.064,0,0,0-2.478-9.1,18.725,18.725,0,0,1,7.947.545A12.78,12.78,0,0,1,30.064,33.531Z" transform="matrix(1, -0.017, 0.017, 1, -8.138, -7.338)" fill="#3c0170"/>
</svg>
