<svg xmlns="http://www.w3.org/2000/svg" xmlns:xlink="http://www.w3.org/1999/xlink" width="95" height="94" viewBox="0 0 95 94">
  <defs>
    <linearGradient id="linear-gradient" x1="0.132" y1="0.923" x2="0.91" y2="0.099" gradientUnits="objectBoundingBox">
      <stop offset="0" stop-color="#6e07b5"/>
      <stop offset="1" stop-color="#831bcc"/>
    </linearGradient>
    <filter id="Path_156" x="0" y="0" width="95" height="94" filterUnits="userSpaceOnUse">
      <feOffset dy="3" input="SourceAlpha"/>
      <feGaussianBlur stdDeviation="3" result="blur"/>
      <feFlood flood-opacity="0.161"/>
      <feComposite operator="in" in2="blur"/>
      <feComposite in="SourceGraphic"/>
    </filter>
    <filter id="Path_158" x="45.772" y="37" width="33.228" height="43.774" filterUnits="userSpaceOnUse">
      <feOffset dy="3" input="SourceAlpha"/>
      <feGaussianBlur stdDeviation="3" result="blur-2"/>
      <feFlood flood-opacity="0.161"/>
      <feComposite operator="in" in2="blur-2"/>
      <feComposite in="SourceGraphic"/>
    </filter>
  </defs>
  <g id="Group_304" data-name="Group 304" transform="translate(-267 -1147)">
    <g transform="matrix(1, 0, 0, 1, 267, 1147)" filter="url(#Path_156)">
      <path id="Path_156-2" data-name="Path 156" d="M10,0H67A10,10,0,0,1,77,10V66A10,10,0,0,1,67,76H10A10,10,0,0,1,0,66V10A10,10,0,0,1,10,0Z" transform="translate(9 6)" fill="url(#linear-gradient)"/>
    </g>
    <g id="Group_303" data-name="Group 303" transform="translate(-63.971 18)">
      <g id="Group_301" data-name="Group 301" transform="translate(355.66 1158.474)">
        <g id="Group_124" data-name="Group 124" transform="translate(0.005 0.07)">
          <g id="Group_123" data-name="Group 123">
            <g id="Group_122" data-name="Group 122">
              <rect id="Rectangle_38" data-name="Rectangle 38" width="40.075" height="26.953" rx="2" fill="#fff"/>
            </g>
          </g>
        </g>
      </g>
      <g id="Group_302" data-name="Group 302" transform="translate(385.743 1172)">
        <g transform="matrix(1, 0, 0, 1, -54.77, -43)" filter="url(#Path_158)">
          <path id="Path_158-2" data-name="Path 158" d="M2,0H13.228a2,2,0,0,1,2,2V23.774a2,2,0,0,1-2,2H2a2,2,0,0,1-2-2V2A2,2,0,0,1,2,0Z" transform="translate(54.77 43)" fill="#fff"/>
        </g>
        <circle id="Ellipse_7" data-name="Ellipse 7" cx="1.227" cy="1.227" r="1.227" transform="translate(7.097 22.092)" fill="#760fbe"/>
      </g>
      <path id="Path_157" data-name="Path 157" d="M1.227,0A1.227,1.227,0,1,1,0,1.227,1.227,1.227,0,0,1,1.227,0Z" transform="translate(373.839 1181.092)" fill="#750ebd"/>
    </g>
  </g>
</svg>
