<svg xmlns="http://www.w3.org/2000/svg" xmlns:xlink="http://www.w3.org/1999/xlink" width="95" height="94" viewBox="0 0 95 94">
  <defs>
    <linearGradient id="linear-gradient" x1="0.132" y1="0.923" x2="0.91" y2="0.099" gradientUnits="objectBoundingBox">
      <stop offset="0" stop-color="#6e07b5"/>
      <stop offset="1" stop-color="#831bcc"/>
    </linearGradient>
    <filter id="Path_156" x="0" y="0" width="95" height="94" filterUnits="userSpaceOnUse">
      <feOffset dy="3" input="SourceAlpha"/>
      <feGaussianBlur stdDeviation="3" result="blur"/>
      <feFlood flood-opacity="0.161"/>
      <feComposite operator="in" in2="blur"/>
      <feComposite in="SourceGraphic"/>
    </filter>
    <filter id="Line_10" x="16.257" y="28.257" width="38.485" height="38.485" filterUnits="userSpaceOnUse">
      <feOffset dy="3" input="SourceAlpha"/>
      <feGaussianBlur stdDeviation="3" result="blur-2"/>
      <feFlood flood-opacity="0.161"/>
      <feComposite operator="in" in2="blur-2"/>
      <feComposite in="SourceGraphic"/>
    </filter>
    <filter id="Line_11" x="28.257" y="28.257" width="38.485" height="38.485" filterUnits="userSpaceOnUse">
      <feOffset dy="3" input="SourceAlpha"/>
      <feGaussianBlur stdDeviation="3" result="blur-3"/>
      <feFlood flood-opacity="0.161"/>
      <feComposite operator="in" in2="blur-3"/>
      <feComposite in="SourceGraphic"/>
    </filter>
    <filter id="Line_12" x="40.257" y="28.257" width="38.485" height="38.485" filterUnits="userSpaceOnUse">
      <feOffset dy="3" input="SourceAlpha"/>
      <feGaussianBlur stdDeviation="3" result="blur-4"/>
      <feFlood flood-opacity="0.161"/>
      <feComposite operator="in" in2="blur-4"/>
      <feComposite in="SourceGraphic"/>
    </filter>
  </defs>
  <g id="Group_304" data-name="Group 304" transform="translate(-267 -1147)">
    <g transform="matrix(1, 0, 0, 1, 267, 1147)" filter="url(#Path_156)">
      <path id="Path_156-2" data-name="Path 156" d="M10,0H67A10,10,0,0,1,77,10V66A10,10,0,0,1,67,76H10A10,10,0,0,1,0,66V10A10,10,0,0,1,10,0Z" transform="translate(9 6)" fill="url(#linear-gradient)"/>
    </g>
    <g id="Group_311" data-name="Group 311" transform="translate(143 1135)">
      <g transform="matrix(1, 0, 0, 1, 124, 12)" filter="url(#Line_10)">
        <line id="Line_10-2" data-name="Line 10" y1="12" x2="12" transform="translate(29.5 38.5)" fill="none" stroke="#fff" stroke-linecap="round" stroke-width="6"/>
      </g>
      <g transform="matrix(1, 0, 0, 1, 124, 12)" filter="url(#Line_11)">
        <line id="Line_11-2" data-name="Line 11" y1="12" x2="12" transform="translate(41.5 38.5)" fill="none" stroke="#fff" stroke-linecap="round" stroke-width="6"/>
      </g>
      <g transform="matrix(1, 0, 0, 1, 124, 12)" filter="url(#Line_12)">
        <line id="Line_12-2" data-name="Line 12" y1="12" x2="12" transform="translate(53.5 38.5)" fill="none" stroke="#fff" stroke-linecap="round" stroke-width="6"/>
      </g>
    </g>
  </g>
</svg>
