<svg xmlns="http://www.w3.org/2000/svg" width="710.735" height="505.948" viewBox="0 0 710.735 505.948">
  <g id="Group_295" data-name="Group 295" transform="translate(-206.942 -132.478)">
    <g id="Group_294" data-name="Group 294" transform="translate(207.352 132.478)">
      <g id="Group_1" data-name="Group 1" transform="translate(41.99 438.375)">
        <path id="Path_5" data-name="Path 5" d="M223.884,341.5c0,8.653,109.808,15.673,245.275,15.673,135.45,0,245.258-7.021,245.258-15.673S604.609,325.82,469.159,325.82C333.692,325.82,223.884,332.839,223.884,341.5Z" transform="translate(-223.884 -325.82)" fill="#3c0170"/>
      </g>
      <path id="Path_6" data-name="Path 6" d="M359.995,347.248c0,5.417-27.876,9.807-62.263,9.807s-62.263-4.39-62.263-9.807,27.876-9.807,62.263-9.807S359.995,341.831,359.995,347.248Z" transform="translate(-168.338 126.154)" fill="#3c0170"/>
      <ellipse id="Ellipse_1" data-name="Ellipse 1" cx="104.47" cy="7.76" rx="104.47" ry="7.76" transform="translate(501.386 467.689)" fill="#3c0170"/>
      <g id="Group_233" data-name="Group 233" transform="translate(184.156 147.361)">
        <path id="Path_153" data-name="Path 153" d="M0,0H108.7V29.242H0Z" transform="translate(133.49 261.555)" fill="#3c0170"/>
        <rect id="Rectangle_2" data-name="Rectangle 2" width="376.826" height="271.102" rx="9.387" transform="translate(0.001)" fill="#6e07b5"/>
        <rect id="Rectangle_3" data-name="Rectangle 3" width="354.629" height="235.205" rx="5.768" transform="translate(10.526 9.885)" fill="#c4c3fc"/>
        <path id="Rectangle_4" data-name="Rectangle 4" d="M7.322,0h187.5a7.322,7.322,0,0,1,7.322,7.322V18.435a0,0,0,0,1,0,0H0a0,0,0,0,1,0,0V7.322A7.322,7.322,0,0,1,7.322,0Z" transform="translate(86.767 288.254)" fill="#6e07b5"/>
        <g id="Group_10" data-name="Group 10" transform="translate(95.215 26.13)" opacity="0.35">
          <g id="Group_9" data-name="Group 9">
            <g id="Group_8" data-name="Group 8">
              <rect id="Rectangle_5" data-name="Rectangle 5" width="248.136" height="166.79" rx="5.01" fill="#fff"/>
            </g>
          </g>
        </g>
        <g id="Group_118" data-name="Group 118" transform="translate(95.216 26.131)" opacity="0.25">
          <g id="Group_117" data-name="Group 117" transform="translate(16.443 25.221)">
            <g id="Group_13" data-name="Group 13" transform="translate(7.138 96.617)">
              <g id="Group_12" data-name="Group 12">
                <g id="Group_11" data-name="Group 11">
                  <rect id="Rectangle_6" data-name="Rectangle 6" width="10.809" height="27.135" fill="#fca70c"/>
                </g>
              </g>
            </g>
            <g id="Group_16" data-name="Group 16" transform="translate(31.494 72.796)">
              <g id="Group_15" data-name="Group 15">
                <g id="Group_14" data-name="Group 14">
                  <rect id="Rectangle_7" data-name="Rectangle 7" width="10.809" height="50.957" fill="#b1affd"/>
                </g>
              </g>
            </g>
            <g id="Group_19" data-name="Group 19" transform="translate(55.851 78.065)">
              <g id="Group_18" data-name="Group 18">
                <g id="Group_17" data-name="Group 17">
                  <rect id="Rectangle_8" data-name="Rectangle 8" width="10.809" height="45.688" fill="#fca70c"/>
                </g>
              </g>
            </g>
            <g id="Group_22" data-name="Group 22" transform="translate(80.207 52.27)">
              <g id="Group_21" data-name="Group 21">
                <g id="Group_20" data-name="Group 20">
                  <rect id="Rectangle_9" data-name="Rectangle 9" width="10.809" height="71.483" fill="#b1affd"/>
                </g>
              </g>
            </g>
            <g id="Group_25" data-name="Group 25" transform="translate(31.494 72.796)" opacity="0.15">
              <g id="Group_24" data-name="Group 24">
                <g id="Group_23" data-name="Group 23">
                  <rect id="Rectangle_10" data-name="Rectangle 10" width="4.961" height="50.957" opacity="0.26"/>
                </g>
              </g>
            </g>
            <g id="Group_28" data-name="Group 28" transform="translate(7.138 96.617)" opacity="0.15">
              <g id="Group_27" data-name="Group 27">
                <g id="Group_26" data-name="Group 26">
                  <rect id="Rectangle_11" data-name="Rectangle 11" width="4.961" height="27.135" opacity="0.26"/>
                </g>
              </g>
            </g>
            <g id="Group_31" data-name="Group 31" transform="translate(80.207 52.27)" opacity="0.62">
              <g id="Group_30" data-name="Group 30">
                <g id="Group_29" data-name="Group 29">
                  <rect id="Rectangle_12" data-name="Rectangle 12" width="4.961" height="71.483" opacity="0.26"/>
                </g>
              </g>
            </g>
            <g id="Group_34" data-name="Group 34" transform="translate(55.851 78.065)" opacity="0.15">
              <g id="Group_33" data-name="Group 33">
                <g id="Group_32" data-name="Group 32">
                  <rect id="Rectangle_13" data-name="Rectangle 13" width="4.961" height="45.688" opacity="0.26"/>
                </g>
              </g>
            </g>
            <g id="Group_37" data-name="Group 37" transform="translate(0 28.217)">
              <g id="Group_36" data-name="Group 36">
                <g id="Group_35" data-name="Group 35">
                  <path id="Path_19" data-name="Path 19" d="M437.578,331.395H340.843V228.389h1.476v101.53h95.26Z" transform="translate(-340.843 -228.389)" fill="#d5dbda"/>
                </g>
              </g>
            </g>
            <g id="Group_40" data-name="Group 40" transform="translate(8.95 36.925)">
              <g id="Group_39" data-name="Group 39">
                <g id="Group_38" data-name="Group 38">
                  <path id="Path_20" data-name="Path 20" d="M345.953,279.386l-.986-1.1,25.305-22.723,23.439,5.092L419.092,232.4l1.1.986-25.954,28.893L370.7,257.168Z" transform="translate(-344.967 -232.402)" fill="#d5dbda"/>
                </g>
              </g>
            </g>
            <g id="Group_43" data-name="Group 43" transform="translate(79.005 32.751)">
              <g id="Group_42" data-name="Group 42">
                <g id="Group_41" data-name="Group 41">
                  <path id="Path_21" data-name="Path 21" d="M384.4,239.814l-7.157-6.863,9.239-2.472Z" transform="translate(-377.247 -230.479)" fill="#d5dbda"/>
                </g>
              </g>
            </g>
            <g id="Group_56" data-name="Group 56" transform="translate(105.896 94.693)">
              <g id="Group_46" data-name="Group 46">
                <g id="Group_45" data-name="Group 45">
                  <g id="Group_44" data-name="Group 44">
                    <rect id="Rectangle_14" data-name="Rectangle 14" width="7.423" height="7.423" fill="#b1affd"/>
                  </g>
                </g>
              </g>
              <g id="Group_49" data-name="Group 49" transform="translate(0 13.006)">
                <g id="Group_48" data-name="Group 48">
                  <g id="Group_47" data-name="Group 47">
                    <rect id="Rectangle_15" data-name="Rectangle 15" width="7.423" height="7.423" fill="#fca70c"/>
                  </g>
                </g>
              </g>
              <g id="Group_52" data-name="Group 52" transform="translate(9.468 16.21)">
                <g id="Group_51" data-name="Group 51">
                  <g id="Group_50" data-name="Group 50">
                    <rect id="Rectangle_16" data-name="Rectangle 16" width="23.529" height="4.218" fill="#efefef"/>
                  </g>
                </g>
              </g>
              <g id="Group_55" data-name="Group 55" transform="translate(9.468 3.205)">
                <g id="Group_54" data-name="Group 54">
                  <g id="Group_53" data-name="Group 53">
                    <rect id="Rectangle_17" data-name="Rectangle 17" width="23.529" height="4.218" fill="#efefef"/>
                  </g>
                </g>
              </g>
            </g>
            <g id="Group_69" data-name="Group 69" transform="translate(149.549 94.693)">
              <g id="Group_59" data-name="Group 59">
                <g id="Group_58" data-name="Group 58">
                  <g id="Group_57" data-name="Group 57">
                    <rect id="Rectangle_18" data-name="Rectangle 18" width="7.423" height="7.423" fill="#b1affd"/>
                  </g>
                </g>
              </g>
              <g id="Group_62" data-name="Group 62" transform="translate(0 13.006)">
                <g id="Group_61" data-name="Group 61">
                  <g id="Group_60" data-name="Group 60">
                    <rect id="Rectangle_19" data-name="Rectangle 19" width="7.423" height="7.423" fill="#fca70c"/>
                  </g>
                </g>
              </g>
              <g id="Group_65" data-name="Group 65" transform="translate(9.468 16.21)">
                <g id="Group_64" data-name="Group 64">
                  <g id="Group_63" data-name="Group 63">
                    <rect id="Rectangle_20" data-name="Rectangle 20" width="23.529" height="4.218" fill="#efefef"/>
                  </g>
                </g>
              </g>
              <g id="Group_68" data-name="Group 68" transform="translate(9.468 3.205)">
                <g id="Group_67" data-name="Group 67">
                  <g id="Group_66" data-name="Group 66">
                    <rect id="Rectangle_21" data-name="Rectangle 21" width="23.529" height="4.218" fill="#efefef"/>
                  </g>
                </g>
              </g>
            </g>
            <g id="Group_82" data-name="Group 82" transform="translate(188.858 94.693)">
              <g id="Group_72" data-name="Group 72">
                <g id="Group_71" data-name="Group 71">
                  <g id="Group_70" data-name="Group 70">
                    <rect id="Rectangle_22" data-name="Rectangle 22" width="7.423" height="7.423" fill="#b1affd"/>
                  </g>
                </g>
              </g>
              <g id="Group_75" data-name="Group 75" transform="translate(0 13.006)">
                <g id="Group_74" data-name="Group 74">
                  <g id="Group_73" data-name="Group 73">
                    <rect id="Rectangle_23" data-name="Rectangle 23" width="7.423" height="7.423" fill="#fca70c"/>
                  </g>
                </g>
              </g>
              <g id="Group_78" data-name="Group 78" transform="translate(9.468 16.21)">
                <g id="Group_77" data-name="Group 77">
                  <g id="Group_76" data-name="Group 76">
                    <rect id="Rectangle_24" data-name="Rectangle 24" width="15.484" height="4.218" fill="#efefef"/>
                  </g>
                </g>
              </g>
              <g id="Group_81" data-name="Group 81" transform="translate(9.468 3.205)">
                <g id="Group_80" data-name="Group 80">
                  <g id="Group_79" data-name="Group 79">
                    <rect id="Rectangle_25" data-name="Rectangle 25" width="15.484" height="4.218" fill="#efefef"/>
                  </g>
                </g>
              </g>
            </g>
            <g id="Group_116" data-name="Group 116">
              <g id="Group_85" data-name="Group 85" transform="translate(107.285 23.771)">
                <g id="Group_84" data-name="Group 84">
                  <g id="Group_83" data-name="Group 83">
                    <rect id="Rectangle_26" data-name="Rectangle 26" width="106.525" height="1.937" fill="#efefef"/>
                  </g>
                </g>
              </g>
              <g id="Group_88" data-name="Group 88">
                <g id="Group_87" data-name="Group 87">
                  <g id="Group_86" data-name="Group 86">
                    <rect id="Rectangle_27" data-name="Rectangle 27" width="213.81" height="4.433" fill="#efefef"/>
                  </g>
                </g>
              </g>
              <g id="Group_91" data-name="Group 91" transform="translate(106.965 29.794)">
                <g id="Group_90" data-name="Group 90">
                  <g id="Group_89" data-name="Group 89">
                    <rect id="Rectangle_28" data-name="Rectangle 28" width="106.845" height="1.936" fill="#efefef"/>
                  </g>
                </g>
              </g>
              <g id="Group_94" data-name="Group 94" transform="translate(106.965 17.748)">
                <g id="Group_93" data-name="Group 93">
                  <g id="Group_92" data-name="Group 92">
                    <rect id="Rectangle_29" data-name="Rectangle 29" width="106.845" height="1.937" fill="#efefef"/>
                  </g>
                </g>
              </g>
              <g id="Group_97" data-name="Group 97" transform="translate(106.965 35.817)">
                <g id="Group_96" data-name="Group 96">
                  <g id="Group_95" data-name="Group 95">
                    <rect id="Rectangle_30" data-name="Rectangle 30" width="106.845" height="1.937" fill="#efefef"/>
                  </g>
                </g>
              </g>
              <g id="Group_100" data-name="Group 100" transform="translate(106.965 41.84)">
                <g id="Group_99" data-name="Group 99">
                  <g id="Group_98" data-name="Group 98">
                    <rect id="Rectangle_31" data-name="Rectangle 31" width="106.845" height="1.936" fill="#efefef"/>
                  </g>
                </g>
              </g>
              <g id="Group_103" data-name="Group 103" transform="translate(106.965 47.862)">
                <g id="Group_102" data-name="Group 102">
                  <g id="Group_101" data-name="Group 101">
                    <rect id="Rectangle_32" data-name="Rectangle 32" width="106.845" height="1.937" fill="#efefef"/>
                  </g>
                </g>
              </g>
              <g id="Group_106" data-name="Group 106" transform="translate(106.965 53.886)">
                <g id="Group_105" data-name="Group 105">
                  <g id="Group_104" data-name="Group 104">
                    <rect id="Rectangle_33" data-name="Rectangle 33" width="106.845" height="1.936" fill="#efefef"/>
                  </g>
                </g>
              </g>
              <g id="Group_109" data-name="Group 109" transform="translate(106.965 59.909)">
                <g id="Group_108" data-name="Group 108">
                  <g id="Group_107" data-name="Group 107">
                    <rect id="Rectangle_34" data-name="Rectangle 34" width="106.845" height="1.936" fill="#efefef"/>
                  </g>
                </g>
              </g>
              <g id="Group_112" data-name="Group 112" transform="translate(106.965 65.931)">
                <g id="Group_111" data-name="Group 111">
                  <g id="Group_110" data-name="Group 110">
                    <rect id="Rectangle_35" data-name="Rectangle 35" width="106.845" height="1.937" fill="#efefef"/>
                  </g>
                </g>
              </g>
              <g id="Group_115" data-name="Group 115" transform="translate(120.046 71.954)">
                <g id="Group_114" data-name="Group 114">
                  <g id="Group_113" data-name="Group 113">
                    <rect id="Rectangle_36" data-name="Rectangle 36" width="93.764" height="1.937" fill="#efefef"/>
                  </g>
                </g>
              </g>
            </g>
          </g>
          <path id="Path_22" data-name="Path 22" d="M570.529,203.766H344.139a10.873,10.873,0,0,0-10.873,10.873v9.514H581.4v-9.514A10.873,10.873,0,0,0,570.529,203.766Z" transform="translate(-333.266 -203.766)" fill="#7a7ae5"/>
          <path id="Path_23" data-name="Path 23" d="M436.278,210.325a3.135,3.135,0,1,1-3.136-3.134A3.136,3.136,0,0,1,436.278,210.325Z" transform="translate(-220.057 -199.758)" fill="#cfcfff"/>
          <circle id="Ellipse_2" data-name="Ellipse 2" cx="3.135" cy="3.135" r="3.135" transform="translate(222.728 7.432)" fill="#cfcfff"/>
          <circle id="Ellipse_3" data-name="Ellipse 3" cx="3.135" cy="3.135" r="3.135" transform="translate(235.506 7.432)" fill="#cfcfff"/>
        </g>
        <g id="Group_232" data-name="Group 232" transform="translate(29.301 56.528)">
          <g id="Group_121" data-name="Group 121" transform="translate(0 6.495)">
            <g id="Group_120" data-name="Group 120">
              <g id="Group_119" data-name="Group 119">
                <rect id="Rectangle_37" data-name="Rectangle 37" width="248.136" height="166.79" rx="5.01" fill="#c4c3fc" opacity="0.55"/>
              </g>
            </g>
          </g>
          <g id="Group_124" data-name="Group 124" transform="translate(5.034)">
            <g id="Group_123" data-name="Group 123">
              <g id="Group_122" data-name="Group 122">
                <rect id="Rectangle_38" data-name="Rectangle 38" width="248.136" height="166.79" rx="5.01" fill="#fff"/>
              </g>
            </g>
          </g>
          <g id="Group_231" data-name="Group 231" transform="translate(21.477 25.222)">
            <g id="Group_127" data-name="Group 127" transform="translate(7.138 96.617)">
              <g id="Group_126" data-name="Group 126">
                <g id="Group_125" data-name="Group 125">
                  <rect id="Rectangle_39" data-name="Rectangle 39" width="10.809" height="27.135" fill="#fca70c"/>
                </g>
              </g>
            </g>
            <g id="Group_130" data-name="Group 130" transform="translate(31.494 72.796)">
              <g id="Group_129" data-name="Group 129">
                <g id="Group_128" data-name="Group 128">
                  <rect id="Rectangle_40" data-name="Rectangle 40" width="10.809" height="50.957" fill="#b1affd"/>
                </g>
              </g>
            </g>
            <g id="Group_133" data-name="Group 133" transform="translate(55.851 78.065)">
              <g id="Group_132" data-name="Group 132">
                <g id="Group_131" data-name="Group 131">
                  <rect id="Rectangle_41" data-name="Rectangle 41" width="10.809" height="45.688" fill="#fca70c"/>
                </g>
              </g>
            </g>
            <g id="Group_136" data-name="Group 136" transform="translate(80.207 52.27)">
              <g id="Group_135" data-name="Group 135">
                <g id="Group_134" data-name="Group 134">
                  <rect id="Rectangle_42" data-name="Rectangle 42" width="10.809" height="71.483" fill="#b1affd"/>
                </g>
              </g>
            </g>
            <g id="Group_139" data-name="Group 139" transform="translate(31.494 72.796)" opacity="0.15">
              <g id="Group_138" data-name="Group 138">
                <g id="Group_137" data-name="Group 137">
                  <rect id="Rectangle_43" data-name="Rectangle 43" width="4.961" height="50.957" opacity="0.26"/>
                </g>
              </g>
            </g>
            <g id="Group_142" data-name="Group 142" transform="translate(7.138 96.617)" opacity="0.15">
              <g id="Group_141" data-name="Group 141">
                <g id="Group_140" data-name="Group 140">
                  <rect id="Rectangle_44" data-name="Rectangle 44" width="4.961" height="27.135" opacity="0.26"/>
                </g>
              </g>
            </g>
            <g id="Group_145" data-name="Group 145" transform="translate(80.207 52.27)" opacity="0.62">
              <g id="Group_144" data-name="Group 144">
                <g id="Group_143" data-name="Group 143">
                  <rect id="Rectangle_45" data-name="Rectangle 45" width="4.961" height="71.483" opacity="0.26"/>
                </g>
              </g>
            </g>
            <g id="Group_148" data-name="Group 148" transform="translate(55.851 78.065)" opacity="0.15">
              <g id="Group_147" data-name="Group 147">
                <g id="Group_146" data-name="Group 146">
                  <rect id="Rectangle_46" data-name="Rectangle 46" width="4.961" height="45.688" opacity="0.26"/>
                </g>
              </g>
            </g>
            <g id="Group_151" data-name="Group 151" transform="translate(0 37.419)">
              <g id="Group_150" data-name="Group 150">
                <g id="Group_149" data-name="Group 149">
                  <path id="Path_24" data-name="Path 24" d="M409.525,340.44H312.79v-93.8h1.476v92.328h95.26Z" transform="translate(-312.79 -246.637)" fill="#d5dbda"/>
                </g>
              </g>
            </g>
            <g id="Group_154" data-name="Group 154" transform="translate(8.951 36.925)">
              <g id="Group_153" data-name="Group 153">
                <g id="Group_152" data-name="Group 152">
                  <path id="Path_25" data-name="Path 25" d="M317.9,293.393l-.986-1.1,25.3-22.723,23.439,5.092,25.38-28.256,1.1.986-25.954,28.893-23.539-5.114Z" transform="translate(-316.914 -246.409)" fill="#d5dbda"/>
                </g>
              </g>
            </g>
            <g id="Group_157" data-name="Group 157" transform="translate(79.005 32.751)">
              <g id="Group_156" data-name="Group 156">
                <g id="Group_155" data-name="Group 155">
                  <path id="Path_26" data-name="Path 26" d="M356.351,253.821l-7.157-6.863,9.239-2.472Z" transform="translate(-349.194 -244.486)" fill="#d5dbda"/>
                </g>
              </g>
            </g>
            <g id="Group_170" data-name="Group 170" transform="translate(105.896 94.693)">
              <g id="Group_160" data-name="Group 160">
                <g id="Group_159" data-name="Group 159">
                  <g id="Group_158" data-name="Group 158">
                    <rect id="Rectangle_47" data-name="Rectangle 47" width="7.423" height="7.423" fill="#b1affd"/>
                  </g>
                </g>
              </g>
              <g id="Group_163" data-name="Group 163" transform="translate(0 13.006)">
                <g id="Group_162" data-name="Group 162">
                  <g id="Group_161" data-name="Group 161">
                    <rect id="Rectangle_48" data-name="Rectangle 48" width="7.423" height="7.423" fill="#fca70c"/>
                  </g>
                </g>
              </g>
              <g id="Group_166" data-name="Group 166" transform="translate(9.468 16.21)">
                <g id="Group_165" data-name="Group 165">
                  <g id="Group_164" data-name="Group 164">
                    <rect id="Rectangle_49" data-name="Rectangle 49" width="23.53" height="4.218" fill="#efefef"/>
                  </g>
                </g>
              </g>
              <g id="Group_169" data-name="Group 169" transform="translate(9.468 3.205)">
                <g id="Group_168" data-name="Group 168">
                  <g id="Group_167" data-name="Group 167">
                    <rect id="Rectangle_50" data-name="Rectangle 50" width="23.53" height="4.218" fill="#efefef"/>
                  </g>
                </g>
              </g>
            </g>
            <g id="Group_183" data-name="Group 183" transform="translate(149.549 94.693)">
              <g id="Group_173" data-name="Group 173">
                <g id="Group_172" data-name="Group 172">
                  <g id="Group_171" data-name="Group 171">
                    <rect id="Rectangle_51" data-name="Rectangle 51" width="7.423" height="7.423" fill="#b1affd"/>
                  </g>
                </g>
              </g>
              <g id="Group_176" data-name="Group 176" transform="translate(0 13.006)">
                <g id="Group_175" data-name="Group 175">
                  <g id="Group_174" data-name="Group 174">
                    <rect id="Rectangle_52" data-name="Rectangle 52" width="7.423" height="7.423" fill="#fca70c"/>
                  </g>
                </g>
              </g>
              <g id="Group_179" data-name="Group 179" transform="translate(9.468 16.21)">
                <g id="Group_178" data-name="Group 178">
                  <g id="Group_177" data-name="Group 177">
                    <rect id="Rectangle_53" data-name="Rectangle 53" width="23.529" height="4.218" fill="#efefef"/>
                  </g>
                </g>
              </g>
              <g id="Group_182" data-name="Group 182" transform="translate(9.468 3.205)">
                <g id="Group_181" data-name="Group 181">
                  <g id="Group_180" data-name="Group 180">
                    <rect id="Rectangle_54" data-name="Rectangle 54" width="23.529" height="4.218" fill="#efefef"/>
                  </g>
                </g>
              </g>
            </g>
            <g id="Group_196" data-name="Group 196" transform="translate(188.858 94.693)">
              <g id="Group_186" data-name="Group 186">
                <g id="Group_185" data-name="Group 185">
                  <g id="Group_184" data-name="Group 184">
                    <rect id="Rectangle_55" data-name="Rectangle 55" width="7.423" height="7.423" fill="#b1affd"/>
                  </g>
                </g>
              </g>
              <g id="Group_189" data-name="Group 189" transform="translate(0 13.006)">
                <g id="Group_188" data-name="Group 188">
                  <g id="Group_187" data-name="Group 187">
                    <rect id="Rectangle_56" data-name="Rectangle 56" width="7.423" height="7.423" fill="#fca70c"/>
                  </g>
                </g>
              </g>
              <g id="Group_192" data-name="Group 192" transform="translate(9.468 16.21)">
                <g id="Group_191" data-name="Group 191">
                  <g id="Group_190" data-name="Group 190">
                    <rect id="Rectangle_57" data-name="Rectangle 57" width="15.484" height="4.218" fill="#efefef"/>
                  </g>
                </g>
              </g>
              <g id="Group_195" data-name="Group 195" transform="translate(9.468 3.205)">
                <g id="Group_194" data-name="Group 194">
                  <g id="Group_193" data-name="Group 193">
                    <rect id="Rectangle_58" data-name="Rectangle 58" width="15.484" height="4.218" fill="#efefef"/>
                  </g>
                </g>
              </g>
            </g>
            <g id="Group_230" data-name="Group 230">
              <g id="Group_199" data-name="Group 199" transform="translate(107.285 23.771)">
                <g id="Group_198" data-name="Group 198">
                  <g id="Group_197" data-name="Group 197">
                    <rect id="Rectangle_59" data-name="Rectangle 59" width="106.525" height="1.937" fill="#efefef"/>
                  </g>
                </g>
              </g>
              <g id="Group_202" data-name="Group 202">
                <g id="Group_201" data-name="Group 201">
                  <g id="Group_200" data-name="Group 200">
                    <rect id="Rectangle_60" data-name="Rectangle 60" width="213.81" height="4.433" fill="#efefef"/>
                  </g>
                </g>
              </g>
              <g id="Group_205" data-name="Group 205" transform="translate(106.965 29.794)">
                <g id="Group_204" data-name="Group 204">
                  <g id="Group_203" data-name="Group 203">
                    <rect id="Rectangle_61" data-name="Rectangle 61" width="106.844" height="1.936" fill="#efefef"/>
                  </g>
                </g>
              </g>
              <g id="Group_208" data-name="Group 208" transform="translate(106.965 17.748)">
                <g id="Group_207" data-name="Group 207">
                  <g id="Group_206" data-name="Group 206">
                    <rect id="Rectangle_62" data-name="Rectangle 62" width="106.844" height="1.937" fill="#efefef"/>
                  </g>
                </g>
              </g>
              <g id="Group_211" data-name="Group 211" transform="translate(106.965 35.817)">
                <g id="Group_210" data-name="Group 210">
                  <g id="Group_209" data-name="Group 209">
                    <rect id="Rectangle_63" data-name="Rectangle 63" width="106.844" height="1.937" fill="#efefef"/>
                  </g>
                </g>
              </g>
              <g id="Group_214" data-name="Group 214" transform="translate(106.965 41.84)">
                <g id="Group_213" data-name="Group 213">
                  <g id="Group_212" data-name="Group 212">
                    <rect id="Rectangle_64" data-name="Rectangle 64" width="106.844" height="1.936" fill="#efefef"/>
                  </g>
                </g>
              </g>
              <g id="Group_217" data-name="Group 217" transform="translate(106.965 47.862)">
                <g id="Group_216" data-name="Group 216">
                  <g id="Group_215" data-name="Group 215">
                    <rect id="Rectangle_65" data-name="Rectangle 65" width="106.844" height="1.937" fill="#efefef"/>
                  </g>
                </g>
              </g>
              <g id="Group_220" data-name="Group 220" transform="translate(106.965 53.886)">
                <g id="Group_219" data-name="Group 219">
                  <g id="Group_218" data-name="Group 218">
                    <rect id="Rectangle_66" data-name="Rectangle 66" width="106.844" height="1.936" fill="#efefef"/>
                  </g>
                </g>
              </g>
              <g id="Group_223" data-name="Group 223" transform="translate(106.965 59.909)">
                <g id="Group_222" data-name="Group 222">
                  <g id="Group_221" data-name="Group 221">
                    <rect id="Rectangle_67" data-name="Rectangle 67" width="106.844" height="1.936" fill="#efefef"/>
                  </g>
                </g>
              </g>
              <g id="Group_226" data-name="Group 226" transform="translate(106.965 65.931)">
                <g id="Group_225" data-name="Group 225">
                  <g id="Group_224" data-name="Group 224">
                    <rect id="Rectangle_68" data-name="Rectangle 68" width="106.844" height="1.937" fill="#efefef"/>
                  </g>
                </g>
              </g>
              <g id="Group_229" data-name="Group 229" transform="translate(120.046 71.954)">
                <g id="Group_228" data-name="Group 228">
                  <g id="Group_227" data-name="Group 227">
                    <rect id="Rectangle_69" data-name="Rectangle 69" width="93.764" height="1.937" fill="#efefef"/>
                  </g>
                </g>
              </g>
            </g>
          </g>
          <path id="Path_27" data-name="Path 27" d="M542.476,217.773H316.086a10.873,10.873,0,0,0-10.873,10.873v9.516H553.349v-9.516A10.873,10.873,0,0,0,542.476,217.773Z" transform="translate(-300.179 -217.773)" fill="#a4a4f7"/>
          <path id="Path_28" data-name="Path 28" d="M408.225,224.332a3.135,3.135,0,1,1-3.134-3.134A3.136,3.136,0,0,1,408.225,224.332Z" transform="translate(-186.97 -213.765)" fill="#cfcfff"/>
          <path id="Path_29" data-name="Path 29" d="M414.113,224.332a3.135,3.135,0,1,1-3.136-3.134A3.136,3.136,0,0,1,414.113,224.332Z" transform="translate(-180.08 -213.765)" fill="#cfcfff"/>
          <path id="Path_30" data-name="Path 30" d="M420,224.332a3.135,3.135,0,1,1-3.136-3.134A3.136,3.136,0,0,1,420,224.332Z" transform="translate(-173.19 -213.765)" fill="#cfcfff"/>
        </g>
        <path id="Path_31" data-name="Path 31" d="M491.367,191.813H433.26q.6,28.263.961,56.53a22.465,22.465,0,0,1-1.053,8.52l-.089,0c-.77-.041-.427.2-.695,1.578,0,.02-.013.043-.017.063-2.348,3.837-6.934,5.936-11.4,6.923a1.135,1.135,0,0,0,.07.623,1.427,1.427,0,0,0-.447,1.756c.269.627,3.609,1.482,8.147.992a21.481,21.481,0,0,0,5.033-1.4,7.9,7.9,0,0,0,1.853-1.261,6.6,6.6,0,0,0,1.7-.41l.184.174,5.2-2.266s-.567-3.279-1.018-4.989a2.915,2.915,0,0,0-.343-.8,238.326,238.326,0,0,0,10.2-36.262c-.948,15.307-6.445,46.4-6.853,47.467a7.983,7.983,0,0,1-6.608,4.64c-1.233.1-7.285-.245-6.632,2.537.158.666,3.3,2.086,7.852,2.392a21.692,21.692,0,0,0,5.2-.5,9.635,9.635,0,0,0,3.238-1.767l.7.938,5.512-1.328s-.007-1.437-.041-3.162a7.025,7.025,0,0,0-1.183-3.362l.076-3.136,3.056-.36s6.137-19.851,9.054-26.6a59.714,59.714,0,0,0,3.3-8.459,60.943,60.943,0,0,0,1.265-10.58,93.582,93.582,0,0,1,3.55-19.107,2.826,2.826,0,0,1,.521-1.113,2.944,2.944,0,0,1,2.007-.7c7.813-.716,11.391.612,16.279-.9,6.443-2,7.129-4.922,7.442-5.063A20.272,20.272,0,0,0,491.367,191.813Z" transform="translate(-136.021 -191.623)" fill="#5851bc" opacity="0.35"/>
        <path id="Path_32" data-name="Path 32" d="M486.665,288.082V220.693c-10.05,13.156-20,24.947-30.047,38.1-4.36,5.708-21.44,24.615-9.79,32.2,2.973,1.936,8.151,1.847,10.738,2.029,9.3.66,18.5-1.914,27.536-4.466C485.623,288.41,486.146,288.254,486.665,288.082Z" transform="translate(-109.837 -157.827)" fill="#5851bc" opacity="0.35"/>
        <path id="Path_33" data-name="Path 33" d="M482.191,262.064l-5.595.432-.106-.317-4.351.336-1.313-3.7a5.617,5.617,0,0,0-5.488-3.483,3,3,0,0,0-2.78,4.158c.226.642.864,2.439,1.3,3.67l-4.581.354.1.319-9.436.729c-1.491.011-3.694,1.936-3.216,3.281l.076.2a1.944,1.944,0,0,0,.043.349L455,291.416l-.208,97h9.473l17.924-69.679Zm-14.723-.721a3.155,3.155,0,0,1-3.079-1.955,1.684,1.684,0,0,1,1.56-2.335,3.155,3.155,0,0,1,3.08,1.955A1.684,1.684,0,0,1,467.468,261.343Z" transform="translate(-105.364 -117.315)" fill="#5851bc" opacity="0.35"/>
        <path id="Path_34" data-name="Path 34" d="M313.076,242.265c-2.107,2.322-4.59,7.275-5.6,9.4-1.068,2.1-2.224,3.292-5.228,4.7-4.143,1.895-8.585,3.711-12.854,5.389v11.005c8.681-5.219,16.535-10.091,16.669-10.141,6.634,2.537,12.181-2.98,13.963-6.96.8-1.784-.4-2.513-.456-3.362-.028-.443.543-3.027.456-3.357-.521-2.324-6.76-.293-6.239-1.4a7.9,7.9,0,0,1,2.6-3.893c3.053-2.083,5.4-4.4,5.4-5.274C321.778,236.868,313.8,241.468,313.076,242.265Z" transform="translate(-289.392 -137.486)" fill="#5851bc" opacity="0.35"/>
      </g>
      <g id="Group_250" data-name="Group 250" transform="translate(0 186.946)">
        <path id="Path_42" data-name="Path 42" d="M278.666,220.086c2.91,5.026.4,11.895,3.333,16.906,1.176,2.005,3.169,3.581,3.733,5.836a5.09,5.09,0,0,1-7.32,5.734,6.308,6.308,0,0,0-1.131-.562c-1.452-.423-2.765.866-4.015,1.719a6.124,6.124,0,0,1-5.284.935c-2.257-.755-3.65-3.027-4.4-5.284-2.1-6.309-.61-13.212,1.333-19.571.97-3.177,2.4-6.7,5.517-7.856" transform="translate(-136.635 -200.632)" fill="#3b2e7a"/>
        <path id="Path_43" data-name="Path 43" d="M340.294,255.059c.048.7,1.111,1.3.4,2.771-1.582,3.281-6.506,7.828-12.394,5.736-.258.091-32.538,18.751-35.023,18.751s-19.428-16.029-24.97-35.865c-1.322-4.733-.807-10.3,3.629-12.7a10.479,10.479,0,0,1,6.094,5.426c3.67,6.927,14.66,29.867,17.095,30.732,3.036-2.023,17.82-6.415,29.79-11.5,2.665-1.163,3.692-2.142,4.64-3.876.9-1.756,3.1-5.838,4.972-7.754.64-.655,7.724-4.449,7.726-3.2,0,.721-2.081,2.63-4.792,4.347a6.5,6.5,0,0,0-2.3,3.21c-.462.911,5.076-.762,5.538,1.155C340.773,252.563,340.268,254.692,340.294,255.059Z" transform="translate(-130.653 -182.126)" fill="#ffb9b0"/>
        <path id="Path_44" data-name="Path 44" d="M271.231,233.487a14.543,14.543,0,0,1,9.64,7.474,30.431,30.431,0,0,1,1.313,3.014c1.719,4.373,4.087,8.334,5.805,12.707-2.353,1.9-5.2,2.767-7.591,3.659a16.164,16.164,0,0,1-7.068.948,3.531,3.531,0,0,1-1.189-.26,3.943,3.943,0,0,1-1.237-1.063q-1.1-1.266-2.149-2.583a7.147,7.147,0,0,1-1.443-2.47,7.5,7.5,0,0,1,.341-3.848" transform="translate(-131.238 -182.441)" fill="#6e07b5"/>
        <path id="Path_45" data-name="Path 45" d="M272.042,239.274a1.5,1.5,0,0,0-.551-.473,1.006,1.006,0,0,0-1.161.516,2.632,2.632,0,0,0-.241,1.348,18.389,18.389,0,0,0,.822,5.237l-.549,9.226.013.017a16.165,16.165,0,0,0,6.61-.964c1-.371,2.075-.753,3.158-1.194C279.036,247.789,275.49,243.386,272.042,239.274Z" transform="translate(-127.826 -176.28)" fill="#7762ef" opacity="0.35"/>
        <path id="Path_46" data-name="Path 46" d="M276.446,230.175s-.124,5.777.764,6.152a22.4,22.4,0,0,0,3.733,1.155L281,249.438l-15.936-2.4-10.966-6.1s11.4-3.778,11.5-4.916-.625-7.528-.625-7.528" transform="translate(-146.536 -188.289)" fill="#ffb9b0"/>
        <g id="Group_243" data-name="Group 243" transform="translate(102.161 127.448)">
          <path id="Path_47" data-name="Path 47" d="M254.874,321.214l-.011.043c-4.358,20.676-2.283,49.075-3.253,64.64.228.063,5.925.775,5.925.775s13.484-65.6,15.931-78.16a18.214,18.214,0,0,0,.313-2.433c.586-9.453-7.932-9.935-12.735-2.12a33.127,33.127,0,0,0-2.2,4.219c-.271.616-.523,1.239-.783,1.908l0,.022a61.042,61.042,0,0,0-2.116,6.6l-.05.241c-.2.662-.362,1.333-.523,2l-.033.154C255.171,319.8,255.026,320.494,254.874,321.214Z" transform="translate(-251.61 -233.802)" fill="#ffb9b0"/>
          <path id="Path_48" data-name="Path 48" d="M278.467,281.9c-.161,1.71-1.072,9.853-2.166,19.454-.935,8.073-1.962,17.173-2.761,24.378-.592,5.406-1.026,9.716-1.209,11.745a26.362,26.362,0,0,1-.477,3.49v.046c-2.053,9.44-8.577,9.987-12.544,7.8a8,8,0,0,1-1.506-1.026,5.051,5.051,0,0,1-1.686-2.782v-.024c-.252-1.938-.5-4.584-.729-7.73v-.046c-.024-.024-.024-.024-.024-.046l-.022-.069c-.48-6.133-.89-14.024-1.254-21.711-.434-9.44-.707-18.54-.777-23.67-.022-.3-.022-.571-.046-.844-.067-15.736,14.391-25.815,23.375-20.936a1.91,1.91,0,0,1,.319.161,3.4,3.4,0,0,0,.343.206c1.026.684,1.369,3.032,1.391,5.723C278.74,277.981,278.6,280.125,278.467,281.9Z" transform="translate(-249.672 -268.692)" fill="#ffb9b0"/>
          <path id="Path_49" data-name="Path 49" d="M256.646,304.36l-1.1-4.121c0,.022,0,.022.011.05a65.869,65.869,0,0,1-1.367,14.388l-.05.241c-.156.649-.323,1.343-.523,2l-.033.154a10.964,10.964,0,0,0-.464,2.112l-.011.043c-.011,1.869,3.969-6.428,4.881-8.37.111-.245.182-.388.182-.388l-1.079-4.321Z" transform="translate(-249.856 -231.775)" fill="#ffb9b0"/>
        </g>
        <g id="Group_244" data-name="Group 244" transform="translate(128.199 126.762)">
          <path id="Path_50" data-name="Path 50" d="M269.1,324.917l0,.046c-.412,21.648,6.274,47.1,8.041,62.821.215.009,5.46-.7,5.46-.7s1-66.315,1.07-79.419a20.7,20.7,0,0,0-.132-2.5c-1.076-9.547-8.82-7.913-11.815,1.053a39.145,39.145,0,0,0-1.259,4.742c-.139.681-.26,1.365-.382,2.092v.024c-.367,2.229-.627,4.6-.784,7.088l0,.252c-.067.707-.1,1.415-.13,2.122l0,.161C269.132,323.433,269.117,324.164,269.1,324.917Z" transform="translate(-257.2 -232.871)" fill="#ffb9b0"/>
          <path id="Path_51" data-name="Path 51" d="M280.011,351.6a5.746,5.746,0,0,1-1.523-.664,4.343,4.343,0,0,1-1.99-2.344l0-.024c-.566-1.864-1.244-4.468-2-7.542-.017-.026-.017-.026-.015-.05l-.03-.078c-1.463-5.97-3.195-13.72-4.811-21.257-1.986-9.28-3.787-18.269-4.714-23.373-.072-.273-.872-3.989-.927-4.262-2.773-15.814,9.56-26.116,18.523-23.1.13.041.241.08.352.119,1.8.725,2.3,7.064,2.706,11.346s3.453,48.687,4.212,56.714a32.6,32.6,0,0,1,.158,3.6C289.742,350.6,283.958,352.776,280.011,351.6Z" transform="translate(-263.608 -268.376)" fill="#ffb9b0"/>
          <path id="Path_52" data-name="Path 52" d="M270.306,305.653l-1.688-3.826c0,.024,0,.024.017.046a73.7,73.7,0,0,1,1.211,14.653l0,.252c-.03.686-.063,1.415-.13,2.122l0,.161a12.547,12.547,0,0,0-.061,2.216l0,.046c.306,1.862,2.478-7.379,2.969-9.536.061-.273.1-.432.1-.432l-1.7-4.032Z" transform="translate(-257.745 -229.231)" fill="#ffb9b0"/>
        </g>
        <path id="Path_53" data-name="Path 53" d="M262.4,261.757S250.79,276.5,251.981,291.315c.5,6.168,1.261,11.6,1.964,17.8.1.894,1.493,13.922,1.1,13.937,0,0,23.916,7.39,47.02-2.294,0-1.578,1.847-31.9-10.634-60.812A201.1,201.1,0,0,1,262.4,261.757Z" transform="translate(-149.115 -151.472)" fill="#453087"/>
        <path id="Path_54" data-name="Path 54" d="M297.87,259.89c-.091,4.225-2.337,6.795-5.56,10.356-.408.634-1.411,10.048-1.751,16.307-.178,3.258,1.213,5.306,0,5.573-4.64,4.047-21.359,7.324-29.029,1.8.805-6.81-2.246-21.806-4.3-29.432-.321-1.174-.6-2.166-.859-2.93-1.916-5.792-5.376-24.367-2.815-25.177.51-.161,1.3-.371,2.22-.647,4.008-1.211,9.933-3.286,9.933-3.286s3.472,10.278,12.507,11.517c4.931-2.029,4.495-8.266,4.436-11.133,1.612.447,2.322.89,7.32,2.37,1.4,2.02.193,6.235,2.457,12.52C292.987,249.293,297.983,254.746,297.87,259.89Z" transform="translate(-148.242 -183.647)" fill="#6e07b5"/>
        <path id="Path_55" data-name="Path 55" d="M285.184,219.539s.912,11.166-.994,17.017c-1.411,4.336-7.2,8.381-12.045,8.327-13.334,0-15.725-18.11-15.656-18.987s19.664-8.479,19.664-8.479Z" transform="translate(-143.74 -201.246)" fill="#ffb9b0"/>
        <path id="Path_56" data-name="Path 56" d="M270.355,269.146" transform="translate(-127.513 -140.712)" fill="#f2f2f2"/>
        <g id="Group_245" data-name="Group 245" transform="translate(146.059 280.164)">
          <path id="Path_57" data-name="Path 57" d="M292.61,346.839c-4.746.853-9.818-.48-11.9-.119-1.717.293-6.131,1.413-7.785-.074s-1.385-6.726.514-7.422a6.971,6.971,0,0,0,1.233.3,13.039,13.039,0,0,0,5.617-.46c3.611,1.484,3.746,2.133,7.85,2.962a26.824,26.824,0,0,1,5.23,1.589C295.143,344.422,295.286,346.359,292.61,346.839Z" transform="translate(-271.837 -339.061)" fill="#6e07b5"/>
        </g>
        <g id="Group_246" data-name="Group 246" transform="translate(99.209 276.505)">
          <path id="Path_58" data-name="Path 58" d="M266.64,350.9c-4.755-.8-7.765-3.429-9.844-3.791-1.714-.306-6.04-1.148-6.493-2.921-.336-1.317.968-6.8,2.991-6.812a7.084,7.084,0,0,0,1.059.7,13.041,13.041,0,0,0,5.443,1.465c2.9,2.617,2.8,3.275,6.387,5.441a26.783,26.783,0,0,1,4.388,3.262C271.963,349.6,269.32,351.353,266.64,350.9Z" transform="translate(-250.25 -337.375)" fill="#6e07b5"/>
        </g>
        <g id="Group_247" data-name="Group 247" transform="translate(46.302 51.216)">
          <path id="Path_59" data-name="Path 59" d="M225.871,250.117l4.366-5.2,26.641,23.822s13.008-17.314,16.587-22.722c3.932-5.944,7.481-11.027,13.234-12.021,1.324.818-.449,22.169-1.142,22.685-8.036,6.012-23.677,25.411-28.653,26.418C251.161,284.267,225.871,250.117,225.871,250.117Z" transform="translate(-225.871 -233.055)" fill="#ffb9b0"/>
          <path id="Path_60" data-name="Path 60" d="M266.3,233.565s-5.443.069-7.785,2-13.52,19.651-13.52,19.651a7.868,7.868,0,0,0,2.938,6.155,16.307,16.307,0,0,0,8.054,3.485s5.614-5.586,8.776-8.127c1.973-1.582,2.168,2.337,2.168,2.337l9.9-9.662Z" transform="translate(-203.501 -233.565)" fill="#6e07b5"/>
        </g>
        <path id="Path_61" data-name="Path 61" d="M256.163,259.556c-.3-.158-.588-.328-.87-.5-1.526-.911-2.932-1.871-3.574-3.607-.927-2.5-1.372-6.341-.074-8.768.877-1.643,2.528-2.719,3.659-4.2a12.959,12.959,0,0,0,2.155-7.29,48.328,48.328,0,0,1,.519-7.693c.925-4.3,2.149-8.4,5.465-11.17,5.311-4.44,15.958-7.071,21.746-2.12,1.052.9,1.259,1.623,2.682,1.76a10.507,10.507,0,0,1,4.857,1.419c1.9,1.1,4.2,2.648,3.937,5.141a8.913,8.913,0,0,1-3.622,5.269,4.36,4.36,0,0,1-2.046.46c-2.257.043-4.13-1.426-6.344-1.187a4.216,4.216,0,0,0-2.78,1.541c-.8.985-.69,2.359-1.621,3.281-1.5,1.476-3.811,1.352-5.584,2.313a1.85,1.85,0,0,0-.762.629,2.008,2.008,0,0,0-.2.948l-.1,2.8c-.879-.386-.97-1.636-1.695-2.266a2.012,2.012,0,0,0-2.539.163,4.253,4.253,0,0,0-1.224,2.433,7.006,7.006,0,0,0,.495,3.342c.579,1.9,2.207,3.613,3.522,2.357.955,1.4-.089,3.746-.124,5.334-.026,1.259,0,3.754,1.174,4.581,1.081.76,2.8.182,2.862,2.144.061,1.793-1.734,3.195-3.516,3.414a13.172,13.172,0,0,1-5.261-.918,8.237,8.237,0,0,0-5.276-.258,16.029,16.029,0,0,1-2.962,1.333A4.63,4.63,0,0,1,256.163,259.556Z" transform="translate(-150.354 -208.126)" fill="#3b2e7a"/>
        <path id="Path_62" data-name="Path 62" d="M241.908,250.372s-6.263-5.02-6.689-6.4-.521-2.843-1.037-4.188a7.846,7.846,0,0,0-4.345-4.323c-1.569-.645-.8-1.176-2.481-.851-2.539.49-3.744,2.977-4.757,4.922-4.325,8.288,7.52,9.857,7.936,9.874.866.035,5.271,5.031,5.271,5.031" transform="translate(-184.507 -181.237)" fill="#ffb9b0"/>
        <g id="Group_249" data-name="Group 249" transform="translate(15.189 11.83)">
          <path id="Path_63" data-name="Path 63" d="M222.154,248.848l4.288,2.86a1.183,1.183,0,0,0,1.671-.375l9.421-15.786-5.586-3.147-10.113,14.8A1.181,1.181,0,0,0,222.154,248.848Z" transform="translate(-199.722 -195.543)" fill="#8484ef"/>
          <g id="Group_248" data-name="Group 248">
            <path id="Path_64" data-name="Path 64" d="M215.808,229.617l1.478,1.007,5.968-8.7-1.476-1c-2.1-1.432-5.139-.645-6.786,1.756h0C213.342,225.079,213.709,228.186,215.808,229.617Z" transform="translate(-208.697 -209.813)" fill="#c4c4f7"/>
            <path id="Path_65" data-name="Path 65" d="M212.3,245.041l27.453,4.168,6.271-9.138-13.854-23.985Z" transform="translate(-210.643 -214.634)" fill="#c4c4f7"/>
            <path id="Path_66" data-name="Path 66" d="M213.105,234.765l25.7,3.787,2.5-3.642-21.628-9.719Z" transform="translate(-209.697 -203.978)" fill="#bbbbf2"/>
            <path id="Path_67" data-name="Path 67" d="M230.846,238.835h0a3.491,3.491,0,0,0,4.746-1.228l1.116-1.626a3.463,3.463,0,0,0-.573-4.853h0a3.491,3.491,0,0,0-4.746,1.228l-1.113,1.625A3.464,3.464,0,0,0,230.846,238.835Z" transform="translate(-190.449 -197.615)" fill="#c4c4f7"/>
            <path id="Path_68" data-name="Path 68" d="M231.39,231.614l-1.113,1.621a3.248,3.248,0,1,0,5.317,3.624l1.113-1.621a3.286,3.286,0,0,0,.228-.382,3.19,3.19,0,1,1-5.271-3.592A3.664,3.664,0,0,0,231.39,231.614Z" transform="translate(-190.448 -196.871)" fill="#bbbbf2"/>
            <path id="Path_69" data-name="Path 69" d="M212.295,246.725h0a2.049,2.049,0,0,0,2.787-.723l18.831-27.442a2.034,2.034,0,0,0-.334-2.85h0a2.052,2.052,0,0,0-2.789.721l-18.831,27.442A2.034,2.034,0,0,0,212.295,246.725Z" transform="translate(-211.535 -215.417)" fill="#a4a4f7"/>
            <path id="Path_70" data-name="Path 70" d="M234.06,215.793l-15.684,22.855a2.05,2.05,0,0,1-2.787.721,1.628,1.628,0,0,1-.482-.523l-3.149,4.588a1.907,1.907,0,1,0,3.123,2.129l18.831-27.442A2.161,2.161,0,0,0,234.06,215.793Z" transform="translate(-211.535 -214.976)" fill="#8484ef"/>
            <path id="Path_71" data-name="Path 71" d="M227.309,241.286l1.777,1.211c2.622,1.786,6.415.805,8.475-2.194l1.764-2.572c2.057-3,1.6-6.88-1.022-8.666l-1.777-1.211c-2.622-1.788-6.415-.805-8.473,2.194l-1.764,2.572C224.23,235.619,224.687,239.5,227.309,241.286Z" transform="translate(-195.777 -201.907)" fill="#a4a4f7"/>
            <path id="Path_72" data-name="Path 72" d="M227.285,229.5l-2.645,3.852a1.959,1.959,0,0,0,.323,2.743l8.266,5.634a1.975,1.975,0,0,0,2.682-.694l2.643-3.852a1.975,1.975,0,0,1-2.682.694l-8.266-5.634A1.957,1.957,0,0,1,227.285,229.5Z" transform="translate(-196.675 -198.932)" fill="#8484ef"/>
          </g>
        </g>
        <path id="Path_73" data-name="Path 73" d="M222.348,242.884a8.636,8.636,0,0,1,1.508-6.452,14.249,14.249,0,0,1,1.539-1.66,2.172,2.172,0,0,1,.929-.612,2.937,2.937,0,0,1,2.005.454,3.674,3.674,0,0,1,1.647,1.636,2.18,2.18,0,0,1-1.209,2.619.482.482,0,0,0-.221.219c-.05.152.056.343.152.512a3.7,3.7,0,0,1,.636,2.142,1.253,1.253,0,0,1-1.471,1.1c-.326-.052-.757-.178-.864.067a.586.586,0,0,0-.007.282,2.3,2.3,0,0,1-.5,1.808.644.644,0,0,1-.4.25,1.091,1.091,0,0,1-.417-.056,5.752,5.752,0,0,1-1.465-.651" transform="translate(-183.809 -181.709)" fill="#ffb9b0"/>
        <path id="Path_74" data-name="Path 74" d="M230.694,244.34a33.559,33.559,0,0,1-.51-3.368,7.662,7.662,0,0,0-3.624-6.3.9.9,0,0,0-.588-.169.652.652,0,0,0-.48.564,1.746,1.746,0,0,0,.115.777c.254.8,1.385,2.292,1.035,3.112a9.348,9.348,0,0,0-.894,3.9c.041,1.189.6,3.125,2.007,3.32" transform="translate(-180.025 -181.258)" fill="#ffb9b0"/>
        <line id="Line_5" data-name="Line 5" x2="5.523" y2="13.023" transform="translate(18.834)" fill="none" stroke="#c4c4f7" stroke-linecap="round" stroke-linejoin="round" stroke-width="0.75"/>
        <line id="Line_6" data-name="Line 6" x2="11.32" y2="8.484" transform="translate(7.301 11.582)" fill="none" stroke="#c4c4f7" stroke-linecap="round" stroke-linejoin="round" stroke-width="0.75"/>
        <line id="Line_7" data-name="Line 7" x2="14.078" y2="1.383" transform="translate(0 27.357)" fill="none" stroke="#c4c4f7" stroke-linecap="round" stroke-linejoin="round" stroke-width="0.75"/>
      </g>
      <g id="Group_259" data-name="Group 259" transform="translate(424.942 23.806)">
        <g id="Group_258" data-name="Group 258" transform="translate(0 5.889)">
          <path id="Path_75" data-name="Path 75" d="M426.426,168.764s-5.057-3.568-5.239-5.065-3.7-7.572-4.831-8.779-7.055-3.264-8.321-3.444-8.52.436-7.615,1.426,5.6.629,6.5,1.17l.9.543s-.9,1.224-.54,1.966-1.552,1.882-.829,3.147-.291,1.176.356,2.5c1.068,2.179,3.8,3.392,4.521,2.8.543,1.289,2.615,3.919,4.56,3.737S422.552,173,422.552,173" transform="translate(-400.342 -121.197)" fill="#ffb9b0"/>
          <path id="Path_76" data-name="Path 76" d="M458.1,147.729c.174,3.394-.067,9.31.905,10.185s4.108.74,4.108.74-11.22,14.189-12.223,13.408S436.614,160.468,439.6,159.91s5.9-.438,5.816-1.984l-.254-4.629" transform="translate(-354.917 -125.545)" fill="#ffb9b0"/>
          <path id="Path_77" data-name="Path 77" d="M475.356,217.809s-21.891,2.487-26.93,2.591-4.792-2.528-4.792-2.528c-.254-5.547-1.2-18.62-2.237-23.048-.974-4.136-1.406-5.664-2.253-9.595-1.884-8.735-1.8-10.4-3.8-21.188l13.078-10.51s1.352,4.024,6.834,4.093c7.325.093,9.605-5.039,9.605-5.039L482.7,164.428l1.675,28.8-2.135,23.72" transform="translate(-359.378 -119.863)" fill="#fca70c"/>
          <path id="Path_78" data-name="Path 78" d="M460.288,156.614a37.426,37.426,0,0,1-1.543,5.033c-1.155,3-2.86,4.084-6.04,4.158q-3.35.081-6.7.161c-1.717.041-3.852.1-5.237-1.1s-1.4-3.2-1.706-4.855q-.586-3.171-.953-6.38a94.5,94.5,0,0,1-.59-12.609,9.382,9.382,0,0,1,.15-1.727,1.228,1.228,0,0,1,.289-.632,1.394,1.394,0,0,1,.8-.31,68.624,68.624,0,0,1,12.672-.812c2.993.085,6.163.434,8.533,2.266,2.385,1.843,3.516,4.837,4.534,7.674.165.456.286,1.061-.111,1.341" transform="translate(-356.86 -137.507)" fill="#ffb9b0"/>
          <g id="Group_254" data-name="Group 254" transform="translate(33.455 95.978)">
            <g id="Group_251" data-name="Group 251" transform="translate(9.723 77.012)">
              <path id="Path_79" data-name="Path 79" d="M425.376,220.263a47.637,47.637,0,0,0,1.3,5.842c.579,1.489,5.465.117,5.786-.846s-1.537-8.041-1.537-8.041" transform="translate(-414.225 -217.218)" fill="#ed9c80"/>
              <path id="Path_80" data-name="Path 80" d="M440.18,222.427c.423,1.606.955,4.685.955,4.685l-4.881,2.127-.8-.753a9.054,9.054,0,0,1-2.708,2.162,20.328,20.328,0,0,1-4.727,1.309c-4.26.46-7.4-.341-7.65-.933-1.057-2.468,4.6-3.129,5.719-3.425a7.493,7.493,0,0,0,5.356-5.367c.25-1.293-.072-1.521.653-1.482a1.718,1.718,0,0,1,1.22.573,3.084,3.084,0,0,0,3.468.807,3.7,3.7,0,0,0,1.732-1.441A2.129,2.129,0,0,1,440.18,222.427Z" transform="translate(-420.238 -213.156)" fill="#38287c"/>
            </g>
            <g id="Group_252" data-name="Group 252">
              <path id="Path_81" data-name="Path 81" d="M458.208,204.7a82.737,82.737,0,0,1-24.925.59c1.079,3.09,3.722,7.051,4.729,11.4,3.327,14.375,4.482,33.684,5.326,45.631,0,0-1.6,3.066-6.713.731-7.646-18.879-20.99-57.142-20.867-65.441.156-10.569,26.533-13.119,45.861-15.723" transform="translate(-415.758 -181.548)" fill="#453087"/>
              <path id="Path_82" data-name="Path 82" d="M490.337,183.722c6.079,4.438-33.69,21.157-33.69,21.157a66.246,66.246,0,0,1-13.036,1.243,9.587,9.587,0,0,1-.97-2.468c-.232-1.152-.109-2.355-.31-3.516a8.176,8.176,0,0,0-3.974-5.354,17.875,17.875,0,0,0-6.5-2.107c-5.378-.866-14.766-.258-14.766-.258,11.951-8.811,36.41-9.966,47.8-10.688C467.074,185.326,489.466,183.086,490.337,183.722Z" transform="translate(-414.196 -181.732)" fill="#38287c"/>
            </g>
            <g id="Group_253" data-name="Group 253" transform="translate(20.01 88.067)">
              <path id="Path_83" data-name="Path 83" d="M431.185,224.35a47.712,47.712,0,0,0,.273,5.979c.313,1.567,5.36,1.063,5.844.171s-.119-8.188-.119-8.188" transform="translate(-417.716 -222.312)" fill="#ed9c80"/>
              <path id="Path_84" data-name="Path 84" d="M446.027,228.449c.137,1.654.128,4.781.128,4.781l-5.176,1.246-.66-.879a9.059,9.059,0,0,1-3.041,1.658,20.275,20.275,0,0,1-4.881.471c-4.278-.286-7.227-1.619-7.374-2.244-.612-2.615,5.072-2.287,6.226-2.383a7.5,7.5,0,0,0,6.207-4.358c.469-1.231.193-1.51.9-1.346a1.712,1.712,0,0,1,1.1.775,3.083,3.083,0,0,0,3.277,1.4,3.7,3.7,0,0,0,1.953-1.118A2.129,2.129,0,0,1,446.027,228.449Z" transform="translate(-424.978 -218.754)" fill="#38287c"/>
            </g>
            <path id="Path_85" data-name="Path 85" d="M489.428,182.244a246.686,246.686,0,0,1-26.943.857c-3.442,0-29.467,4.885-31.956,9.295-4.1,7.255,2.669,49.654,2.044,80.009,0,0,3.121,2.6,8.637.156,1.374-14.914,10.183-50.089,4.106-66.513,14.347,1.905,25.925,3.8,38.966-.525,3.053-1.011,5.339-3.168,6.71-7.116S491.652,185.786,489.428,182.244Z" transform="translate(-400.023 -181.133)" fill="#453087"/>
          </g>
          <g id="Group_255" data-name="Group 255" transform="translate(16.739 33.669)">
            <path id="Path_86" data-name="Path 86" d="M480.364,153.021s-3.127.174-3.737.221a28.807,28.807,0,0,0-7.73,1.465c-3.548,1.313-6.05,4.61-8.937,7.19-2.78,2.485-17.184,16.212-19.873,16.717s-26.273-15.658-26.273-15.658l-5.76,5.76s25.6,23.649,33.226,23.69c3.7.017,24.137-10.736,30.674-14.918Z" transform="translate(-408.055 -153.021)" fill="#fca70c"/>
            <path id="Path_87" data-name="Path 87" d="M441.342,180c-5.261.3-29.374-18.117-32.169-20.265l-1.118,1.118s25.6,23.649,33.226,23.69c3.088.015,17.783-7.448,26.381-12.357l2.224-1.291-1.335-7.952S446.928,179.687,441.342,180Z" transform="translate(-408.055 -145.161)" fill="#ce4a30" opacity="0.25"/>
          </g>
          <g id="Group_256" data-name="Group 256" transform="translate(13.394 64.39)">
            <path id="Path_88" data-name="Path 88" d="M417.712,204.607H476.3l-10.5-34.246a4.5,4.5,0,0,0-4.306-3.184H410.181a2.922,2.922,0,0,0-2.791,3.778Z" transform="translate(-405.641 -167.177)" fill="#a4a4f7"/>
            <path id="Path_89" data-name="Path 89" d="M417.849,204.607h57.706l-10.506-34.246a4.5,4.5,0,0,0-4.3-3.184H409.437a2.923,2.923,0,0,0-2.793,3.778l10.065,32.807A1.192,1.192,0,0,0,417.849,204.607Z" transform="translate(-406.514 -167.177)" fill="#7a74d1"/>
          </g>
          <path id="Path_90" data-name="Path 90" d="M473.434,170.04c-2.915,13.184-3.431,23.5-4.254,32.929-10.239,3.974-14.408,9.887-24.424,14.347,0,0-7.91-1.313-8.742,1.671-.48,1.721,9.26,3.09,9.26,3.09,9.284.043,33.769-6.743,35.427-7.2s6.48-31.579,6.673-48.47c.028-2.4-.056-5-1.558-6.873A8.986,8.986,0,0,0,482.8,157.3c-6.532-3.34-11.37-4.251-18.692-4.718" transform="translate(-358.617 -119.863)" fill="#ce4a30" opacity="0.25"/>
          <path id="Path_91" data-name="Path 91" d="M449.516,184.188c-1.1-1.387-3.106-1.586-4.874-1.543a35.787,35.787,0,0,0-3.913.313c-.593.08-1.272.217-1.335.859s2.869,0,4.408.443a77.93,77.93,0,0,1-9.061.247,2.587,2.587,0,0,0-1.042.106.866.866,0,0,0-.588.794,1.078,1.078,0,0,0,.415.688,6.133,6.133,0,0,0,3.116,1.257,24.019,24.019,0,0,0,13.77-1.215" transform="translate(-361.996 -84.692)" fill="#ffb9b0"/>
          <path id="Path_92" data-name="Path 92" d="M468.076,169.793c-.241,14.093-1.241,20.543-.966,34.637-7.077,1.51-16.871,9.523-26.887,13.983a5.283,5.283,0,0,0,.33,3.665c.764.28,33.792-7.761,36.418-10.18,2.363-2.179,5.488-28.595,5.682-45.486.028-2.4-.056-5-1.558-6.873a8.986,8.986,0,0,0-3.021-2.235c-6.532-3.34-11.37-4.251-18.692-4.718" transform="translate(-353.894 -119.863)" fill="#fca70c"/>
          <g id="Group_257" data-name="Group 257" transform="translate(37.889 78.256)">
            <path id="Path_93" data-name="Path 93" d="M434.423,179c.211,3-3.338,5.439-7.926,5.439s-8.479-2.435-8.687-5.439,3.338-5.439,7.926-5.439S434.212,176,434.423,179Z" transform="translate(-417.801 -173.566)" fill="none" stroke="#a4a4f7" stroke-miterlimit="10" stroke-width="1" opacity="0.45"/>
            <ellipse id="Ellipse_4" data-name="Ellipse 4" cx="3.022" cy="5.283" rx="3.022" ry="5.283" transform="matrix(0.039, -0.999, 0.999, 0.039, 2.918, 8.253)" fill="#a4a4f7"/>
          </g>
        </g>
        <path id="Path_94" data-name="Path 94" d="M451.584,142.451c-.109-.525-1.28-.629-2.454-.482s-4.308.54-4.953,1.044-.605.862-.951.9-.36-.317-1.109-.642-2.557-.1-3.731.048-2.292.41-2.268.946a2.994,2.994,0,0,0,.469,1.623c.241.152.239.124,1.163,2.251a2.246,2.246,0,0,0,2.83,1.536c1.934-.421,2.057-2.624,2.207-3.544s.286-1.057.579-1.1.5.059.87.914.642,2.823,2.624,2.936c2.593.145,3.715-.742,4.076-2.407.486-2.255.375-2.261.571-2.465a12.322,12.322,0,0,1,1.94.163l-.043-.673A14.4,14.4,0,0,1,451.584,142.451Zm-9.419,4.54a2.254,2.254,0,0,1-1.91,2.363c-1.191.15-1.736-.482-2.379-2.005a3.927,3.927,0,0,1-.386-2.745c.2-.365.844-.354,2.322-.447s1.968-.124,2.209.527A8.121,8.121,0,0,1,442.166,146.991Zm8.455-1.244c-.245,1.634-.844,2.42-2.474,2.615-2.309.276-2.754-.634-3.095-1.734a8.111,8.111,0,0,1-.432-2.272c.072-.688.556-.781,2.01-1.057s3.4-.612,3.685-.308A3.922,3.922,0,0,1,450.621,145.747Z" transform="translate(-358.476 -126.468)" fill="#483a99"/>
        <path id="Path_95" data-name="Path 95" d="M468.117,147.178a25.3,25.3,0,0,0-.645-3.475,11.081,11.081,0,0,0-5.413-7.094,17.313,17.313,0,0,0-12.249-1.22c-2.24.627-3.073,1.808-4.228,1.773a12.83,12.83,0,0,1-3.136-1.031c-8.761-3.149-7.29,5.428-6.357,7.782.412,1.042,2.4,1.8,2.665,2.233s.234,2.554.4,3.49a1.855,1.855,0,0,0,1.092,1.289s.048-2.761.093-3.136a3.467,3.467,0,0,1,1.294-2.585,8.051,8.051,0,0,1,3.151-.885,23.93,23.93,0,0,1,6.45,1.068c1.634,1.4,2.057,4.607,2.515,6.489.215.879.436,1.471.794,1.458.273-2.593,1.172-2.659,2.724-1.773.827.473,1.291,2.114,1.319,3.5a3.7,3.7,0,0,1-2.613,3.83c-.621.132,1.248,3.67,2.109,4.553a4.8,4.8,0,0,0,.916.8,4.161,4.161,0,0,0,1.055.391l1.252.341a3.273,3.273,0,0,0,1.721.145c.922-.26,1.411-1.239,1.827-2.105.686-1.421,1.471-2.8,2.031-4.271A25.4,25.4,0,0,0,468.117,147.178Z" transform="translate(-359.346 -134.794)" fill="#483a99"/>
      </g>
      <g id="Group_265" data-name="Group 265" transform="translate(580.687 101)">
        <path id="Path_96" data-name="Path 96" d="M583,235.4h-110.9l13.282-9.825V177.607a7.243,7.243,0,0,1,7.244-7.244H583a7.244,7.244,0,0,1,7.244,7.244v50.544A7.244,7.244,0,0,1,583,235.4Z" transform="translate(-472.107 -170.363)" fill="#6e07b5"/>
        <g id="Group_264" data-name="Group 264" transform="translate(22.011 9.354)">
          <rect id="Rectangle_88" data-name="Rectangle 88" width="50.679" height="4.85" transform="translate(35.816)" fill="#fff" opacity="0.45"/>
          <rect id="Rectangle_89" data-name="Rectangle 89" width="50.679" height="4.849" transform="translate(35.816 7.244)" fill="#fff" opacity="0.45"/>
          <rect id="Rectangle_90" data-name="Rectangle 90" width="50.679" height="4.849" transform="translate(35.816 14.489)" fill="#fff" opacity="0.45"/>
          <rect id="Rectangle_91" data-name="Rectangle 91" width="50.679" height="4.849" transform="translate(35.816 21.547)" fill="#fff" opacity="0.45"/>
          <rect id="Rectangle_92" data-name="Rectangle 92" width="35.343" height="4.849" transform="translate(35.816 29.991)" fill="#fff" opacity="0.45"/>
          <g id="Group_263" data-name="Group 263">
            <path id="Path_154" data-name="Path 154" d="M3.385,0H28.449a3.385,3.385,0,0,1,3.385,3.385V33.838a3.385,3.385,0,0,1-3.385,3.385H3.385A3.385,3.385,0,0,1,0,33.838V3.385A3.385,3.385,0,0,1,3.385,0Z" fill="#b077d7"/>
            <rect id="Rectangle_94" data-name="Rectangle 94" width="31.835" height="3.996" transform="translate(0 41.859)" fill="#fff" opacity="0.45"/>
            <g id="Group_262" data-name="Group 262" transform="translate(3.841 8.335)">
              <path id="Path_97" data-name="Path 97" d="M499.236,191.783H487.682a1.444,1.444,0,0,1-1.391-1.066l-2.22-8.206a1.439,1.439,0,0,1,1.391-1.816h16a1.441,1.441,0,0,1,1.391,1.816l-2.222,8.206A1.442,1.442,0,0,1,499.236,191.783Z" transform="translate(-484.019 -175.962)" fill="#fff"/>
              <g id="Group_260" data-name="Group 260" transform="translate(3.051)">
                <path id="Path_98" data-name="Path 98" d="M499.627,196.182H485.711a.288.288,0,0,1,0-.575h13.7l4.84-16.884a.29.29,0,0,1,.278-.208h3.027a.288.288,0,0,1,0,.575h-2.813l-4.84,16.884A.29.29,0,0,1,499.627,196.182Z" transform="translate(-485.425 -178.514)" fill="#fff"/>
              </g>
              <g id="Group_261" data-name="Group 261" transform="translate(2.102 18.247)">
                <path id="Path_99" data-name="Path 99" d="M488.354,188.6a1.683,1.683,0,1,1-1.682-1.682A1.682,1.682,0,0,1,488.354,188.6Z" transform="translate(-484.988 -186.922)" fill="#fff"/>
                <circle id="Ellipse_5" data-name="Ellipse 5" cx="1.683" cy="1.683" r="1.683" transform="translate(12.234)" fill="#fff"/>
              </g>
            </g>
          </g>
        </g>
      </g>
      <g id="Group_272" data-name="Group 272" transform="translate(270.39 0)">
        <path id="Path_100" data-name="Path 100" d="M338.359,222.875H479.647l-16.919-12.518v-77.3a9.233,9.233,0,0,0-9.232-9.232H338.359a9.233,9.233,0,0,0-9.232,9.232v80.587A9.233,9.233,0,0,0,338.359,222.875Z" transform="translate(-329.127 -123.824)" fill="#6e07b5"/>
        <g id="Group_271" data-name="Group 271" transform="translate(12.276 14.334)">
          <g id="Group_266" data-name="Group 266" transform="translate(0 0)" opacity="0.45">
            <rect id="Rectangle_95" data-name="Rectangle 95" width="64.569" height="6.179" transform="translate(64.569 6.179) rotate(180)" fill="#fff"/>
            <rect id="Rectangle_96" data-name="Rectangle 96" width="64.569" height="6.178" transform="translate(64.569 15.408) rotate(180)" fill="#fff"/>
            <rect id="Rectangle_97" data-name="Rectangle 97" width="64.569" height="6.178" transform="translate(64.569 24.638) rotate(180)" fill="#fff"/>
            <rect id="Rectangle_98" data-name="Rectangle 98" width="64.569" height="6.178" transform="translate(64.569 33.631) rotate(180)" fill="#fff"/>
            <rect id="Rectangle_99" data-name="Rectangle 99" width="64.569" height="6.178" transform="translate(64.569 42.624) rotate(180)" fill="#fff"/>
            <rect id="Rectangle_100" data-name="Rectangle 100" width="64.569" height="6.178" transform="translate(64.569 58.966) rotate(180)" fill="#fff"/>
            <rect id="Rectangle_101" data-name="Rectangle 101" width="110.201" height="6.178" transform="translate(110.201 68.697) rotate(180)" fill="#fff"/>
          </g>
          <g id="Group_270" data-name="Group 270" transform="translate(69.641 0)">
            <rect id="Rectangle_102" data-name="Rectangle 102" width="40.56" height="47.425" rx="4.313" transform="translate(40.56 47.425) rotate(180)" fill="#b077d7"/>
            <rect id="Rectangle_103" data-name="Rectangle 103" width="40.56" height="5.091" transform="translate(40.56 58.422) rotate(180)" fill="#fff" opacity="0.45"/>
            <g id="Group_269" data-name="Group 269" transform="translate(3.221 10.619)">
              <path id="Path_101" data-name="Path 101" d="M376.891,152.227h14.721a1.835,1.835,0,0,0,1.771-1.356l2.832-10.454a1.837,1.837,0,0,0-1.773-2.316h-20.38a1.835,1.835,0,0,0-1.773,2.316l2.83,10.454A1.837,1.837,0,0,0,376.891,152.227Z" transform="translate(-363.833 -132.07)" fill="#fff"/>
              <g id="Group_267" data-name="Group 267">
                <path id="Path_102" data-name="Path 102" d="M378.822,157.831H396.55a.366.366,0,0,0,0-.731H379.1l-6.17-21.513a.363.363,0,0,0-.349-.265h-3.859a.366.366,0,0,0,0,.731H372.3l6.17,21.513A.363.363,0,0,0,378.822,157.831Z" transform="translate(-368.357 -135.322)" fill="#fff"/>
              </g>
              <g id="Group_268" data-name="Group 268" transform="translate(9.892 23.249)">
                <path id="Path_103" data-name="Path 103" d="M380.1,148.177a2.144,2.144,0,1,0,2.144-2.142A2.143,2.143,0,0,0,380.1,148.177Z" transform="translate(-364.511 -146.035)" fill="#fff"/>
                <path id="Path_104" data-name="Path 104" d="M372.915,148.177a2.144,2.144,0,1,0,2.144-2.142A2.143,2.143,0,0,0,372.915,148.177Z" transform="translate(-372.915 -146.035)" fill="#fff"/>
              </g>
            </g>
          </g>
        </g>
      </g>
      <g id="Group_279" data-name="Group 279" transform="translate(525.531 192.075)">
        <ellipse id="Ellipse_6" data-name="Ellipse 6" cx="62.263" cy="6.564" rx="62.263" ry="6.564" transform="translate(18.604 300.746)" fill="#3c0170"/>
        <path id="Path_105" data-name="Path 105" d="M476.34,350.606c-.523,1.018-3.027,3.37-6.5,4.92s-10.818,2.276-6.734,3.642,8.846.536,11.259.15a48.6,48.6,0,0,1,7.594-.458c3.752-.024,3.781-.256,3.275-4.488C484.539,348.549,478.028,347.316,476.34,350.606Z" transform="translate(-428.888 -52.612)" fill="#6e07b5"/>
        <path id="Path_106" data-name="Path 106" d="M504.349,350.211c-.211,1.174,1.456,4.733-1.526,7.346s-9.757,5.36-5.267,5.465a26.14,26.14,0,0,0,11.083-2.064c2.283-1.128.46-2.9,3.292-3.8,3.733-1.178,2.962-3.922,1.022-5.619C510.469,345.953,505.019,346.411,504.349,350.211Z" transform="translate(-388.919 -54.328)" fill="#6e07b5"/>
        <path id="Path_107" data-name="Path 107" d="M522.722,319.909s8.941-26.288-16.424-47.944c0,0-13.6,5.413-24.482,6.066-8.572.514-12.926-.273-12.926-.273s-.723,23.354-.751,35.941Z" transform="translate(-421.594 -142.542)" fill="#3b2e7a"/>
        <path id="Path_108" data-name="Path 108" d="M467.2,318.714c-.49-11.754,12.255-10.213,16.954-1.432,9.718,18.156-3.583,59.972-5.343,79.784-1.825.71-4.889,1.259-6.725.421a4.709,4.709,0,0,1-1.955-2.162C470.408,371.019,467.726,331.28,467.2,318.714Z" transform="translate(-422.711 -97.685)" fill="#3b2e7a"/>
        <path id="Path_109" data-name="Path 109" d="M483.693,354.809c-1.465,4.8-17.735,9.846-16.415-7.622.584-7.748,2.144-50.531,2.444-54.655s.99-10.152,2.984-10.905c9.968-3.761,27.6,9.271,24.975,24.758C495.928,316.737,486.733,344.857,483.693,354.809Z" transform="translate(-422.692 -132)" fill="#3b2e7a"/>
        <path id="Path_110" data-name="Path 110" d="M486.994,323.558c-3.935-11.088,8.844-13.047,16.092-6.218,16.971,15.995,17.629,53.682,21.787,73.134a14.833,14.833,0,0,1-7.418,2.125,2.654,2.654,0,0,1-2.025-1.033C508.536,368.258,491.2,335.412,486.994,323.558Z" transform="translate(-400.391 -94.078)" fill="#3b2e7a"/>
        <path id="Path_111" data-name="Path 111" d="M512.126,355.715c.443,5-13.117,15.328-18.456-1.356-2.368-7.4-12.5-51.132-13.772-55.067s-.922-12.058.642-13.5c7.826-7.231,25.491-.872,28.875,14.464C511.681,310.5,511.2,345.348,512.126,355.715Z" transform="translate(-408.739 -129.852)" fill="#3b2e7a"/>
        <g id="Group_278" data-name="Group 278">
          <path id="Path_112" data-name="Path 112" d="M462.15,240.175c.46-.488.922-.977,1.337-1.506,3.212-4.11,3.681-7.754,6.66-12.526A37.033,37.033,0,0,1,472.311,222a17.392,17.392,0,0,1,4.831-3.961c1.393-.727.2,2.34.2,2.34s1.183-1.712,2.324-1.591c.445.048.521,2.663.527,3.11a21.912,21.912,0,0,1-2.439,10.382,5.376,5.376,0,0,0-.831,2.359,5.279,5.279,0,0,0,2.806-1.38,3.383,3.383,0,0,1,2.932-.855,7.6,7.6,0,0,1-.564,1.224c-1.27,2.385-2.693,4.922-5.135,6.079-1.456.692-3.142.814-4.568,1.573-2.572,1.367-3.822,4.531-6.43,5.823" transform="translate(-428.603 -205.775)" fill="#f2a181"/>
          <rect id="Rectangle_104" data-name="Rectangle 104" width="11.109" height="20.453" rx="0.646" transform="matrix(0.923, 0.386, -0.386, 0.923, 47.75, 12.706)" fill="#5e5dbb"/>
          <rect id="Rectangle_105" data-name="Rectangle 105" width="9.314" height="18.257" transform="translate(48.432 14.182) rotate(22.698)" fill="#b4b4db"/>
          <path id="Path_113" data-name="Path 113" d="M503.717,245.656a60.682,60.682,0,0,0-12.416,2.1c-8.831,2.652-11.869,6.741-14.922,8.431,5.929-7.531,12.535-23.5,12.535-23.5s-7.967-6.548-8.885-5-34.361,40.685-33.313,47.022c.432,2.611,4.3,5.2,7.726,5.076,9.486-.323,20.5-3.774,32.043-7.552,5.074-1.662,6.641,1.918,6.641,1.918" transform="translate(-446.692 -194.63)" fill="#6e07b5"/>
          <path id="Path_114" data-name="Path 114" d="M463.446,242.879s-4.212,8.49-5.475,9.043,3.069-1.767,5.441-4.217,5.619-8.881,5.619-8.881C467.786,239.335,463.446,242.879,463.446,242.879Z" transform="translate(-433.759 -181.323)" fill="#5d059d"/>
          <path id="Path_115" data-name="Path 115" d="M469.308,221.739a1.905,1.905,0,0,1,.595,1.337c.291,1.879.569,3.872-.163,5.627a8.1,8.1,0,0,1-2.266,2.884,17.807,17.807,0,0,1-3.446,2.357" transform="translate(-426.405 -201.317)" fill="#f2a181"/>
          <path id="Path_116" data-name="Path 116" d="M476.3,215.23c-2.233.645-3.416,3.529-4.173,5.5a30.769,30.769,0,0,0-1.671,7.426,10.172,10.172,0,0,0,.365,5.224,10.977,10.977,0,0,0,1.456,2.27,4.78,4.78,0,0,0,1.053,1.109,1.62,1.62,0,0,0,1.454.247c.694-.269.974-1.085,1.172-1.806,1.289-4.69,2.7-9.432,5.343-13.512" transform="translate(-419.073 -208.934)" fill="#170d54"/>
          <path id="Path_117" data-name="Path 117" d="M474.331,222.993c-.043-1.5-1.617-2.468-2.978-.922-1.126,1.28-1.428,3.709-1.491,5.5-.076,2.151,1.591,2.574,2.962,2.876" transform="translate(-419.581 -201.846)" fill="#f2a181"/>
          <path id="Path_118" data-name="Path 118" d="M465.58,243.721c2.756-3.164,11.509-8.377,23.2-8.008,8.058.256,30.008,1.584,32.46,6.977,1.252,2.754,2.6,30.975.764,40.707-1.38,7.318-4.911,25.444-4.911,29.819s2.348,6.248,1.252,7.52c-2.455,2.845-19.248,4.039-27.132,4.039-7.018,0-18.961-1.871-19.569-4.119-.9-3.338,1.369-3.212,1.678-6.71s1.194-26.205-.093-29.923c-2.324-6.708-3.453-17.65-5.3-22.614C466.533,257.643,462.822,246.883,465.58,243.721Z" transform="translate(-425.752 -184.986)" fill="#6e07b5"/>
          <path id="Path_119" data-name="Path 119" d="M504.156,250.009c.838,1.741,6.517,10.875,6.517,10.875l.23,1.092a46.237,46.237,0,0,1-.577,4.881c-1.38,7.318-4.911,25.444-4.911,29.819s2.248,6.168,1.252,7.52c-1.936,2.624-33.6,8.525-32.043,1.2.141-.662,26.576-20.834,26.718-21.509,1.22-5.788,2.281-9.959,2.815-14.18C505.443,259.544,503.321,248.268,504.156,250.009Z" transform="translate(-414.07 -168.446)" fill="#3c0170" opacity="0.34"/>
          <path id="Path_120" data-name="Path 120" d="M474.217,234.166s-.076,9.18-.445,9.551a14.618,14.618,0,0,1-2.183,1.226s1.293,7.98,3.292,7.387,15.2-7.259,15.2-7.259-1.873-.762-1.873-1.5,1.777-15.178,1.777-15.178" transform="translate(-417.557 -193.533)" fill="#ffbe9d"/>
          <path id="Path_121" data-name="Path 121" d="M485.249,215.687c-1.923.525-6.995-.525-8.394,1.573s-2.622,7.17-3.147,8.57c-1.044,2.784-1.725,5.762-2.485,8.633-.987,3.741-2.617,10.595,1.042,13.724a4.868,4.868,0,0,0,2.826,1.432c1.732.315,3.457.671,5.189.981,2.687.482,5.662,1.044,8.329.178,3.563-1.159,5.519-6.057,6.435-9.386l5.245-19.061Z" transform="translate(-419.422 -208.399)" fill="#ffbe9d"/>
          <path id="Path_122" data-name="Path 122" d="M473.853,241.072s-.773,35.819-2.231,57.61l5.267,7.266,3.622-9.1a277.131,277.131,0,0,0-3.427-55.531Z" transform="translate(-417.518 -178.694)" fill="#3b2e7a"/>
          <path id="Path_123" data-name="Path 123" d="M472.09,240.84l.124.493a10.012,10.012,0,0,0,1.092,2.654h0l3.231.247s2.2-1.15,2.489-2.387-3.609-3.266-3.609-3.266l-.473.187a7.011,7.011,0,0,0-2.813,2.025Z" transform="translate(-416.971 -181.609)" fill="#3b2e7a"/>
          <path id="Path_124" data-name="Path 124" d="M486.056,234.356a13.508,13.508,0,0,1,3.685,3.737c-1.662,3.8-5.419,10.556-9.558,13.633a18.684,18.684,0,0,0-6.561-8.2S484.9,241.518,486.056,234.356Z" transform="translate(-415.177 -186.553)" fill="#fff"/>
          <path id="Path_125" data-name="Path 125" d="M477.187,243.265a13.89,13.89,0,0,0-6.428,6.111,30.765,30.765,0,0,1,.875-11.342s2.648-3.386,3.563-3.457C474.817,238.895,477.187,243.265,477.187,243.265Z" transform="translate(-418.74 -186.293)" fill="#fff"/>
          <g id="Group_277" data-name="Group 277" transform="translate(10.651 54.37)">
            <path id="Path_126" data-name="Path 126" d="M478.218,275.432c-4.006.6-5.484,2.09-7.741,4.319a.841.841,0,0,0-.339.668c.052.319.428.46.747.512,1.86.3,2.164-.89,3.9-1.615,1.172-.49,2.34-1,3.5-1.508" transform="translate(-429.912 -192.855)" fill="#f2a181"/>
            <g id="Group_276" data-name="Group 276" transform="translate(0 45.702)">
              <g id="Group_273" data-name="Group 273" transform="translate(0 5.784)">
                <path id="Path_127" data-name="Path 127" d="M486.309,263.02,500.5,308.493a1.628,1.628,0,0,1-1.5,2.283l-29.6,2.6a2.747,2.747,0,0,1-2.483-1.912l-15.255-44.782c-.382-1.22,1.378-2.967,2.57-2.975l29.6-2.6A2.747,2.747,0,0,1,486.309,263.02Z" transform="translate(-451.6 -261.106)" fill="#e9e6ff"/>
              </g>
              <g id="Group_274" data-name="Group 274" transform="translate(0.042 6.974)">
                <path id="Path_128" data-name="Path 128" d="M485.314,263.566l13.991,44.774a1.628,1.628,0,0,1-1.5,2.283l-29.6,2.6a2.741,2.741,0,0,1-2.483-1.912l-13.991-44.774a1.628,1.628,0,0,1,1.5-2.281l29.606-2.6A2.744,2.744,0,0,1,485.314,263.566Z" transform="translate(-451.619 -261.654)" fill="#e0d9ff"/>
              </g>
              <g id="Group_275" data-name="Group 275" transform="translate(10.087)">
                <path id="Path_129" data-name="Path 129" d="M456.248,262.516l1.05,3.925,13.847-1.223-1.138-3.909Z" transform="translate(-456.248 -255.084)" fill="#fff"/>
                <path id="Path_130" data-name="Path 130" d="M457.549,262.224c.284.916,1.387,4.442,1.387,4.442l6.608-.612-1.387-4.442a4.494,4.494,0,0,0-4.386-3.158C457.947,258.624,456.953,260.312,457.549,262.224Zm1.465-.089a1.515,1.515,0,0,1,1.246-2.116,2.522,2.522,0,0,1,2.461,1.773,1.516,1.516,0,0,1-1.246,2.116A2.522,2.522,0,0,1,459.014,262.135Z" transform="translate(-454.927 -258.441)" fill="#fff"/>
              </g>
            </g>
            <path id="Path_131" data-name="Path 131" d="M490.032,273.968c-3.106.649-11.383,3.119-12.251,3.529a36.428,36.428,0,0,0-5.278,3.9c-3.117,3.123-1.524,4.581-2.75,8.818a2.417,2.417,0,0,0-.078.671c0,.443.6.825,1.2.41.323.547,1.285.21,1.751-.384-.009.423.586.69,1.539.163.514-.284.421-.258,1.61-1.319a12.526,12.526,0,0,1,3.37-2.051,24.834,24.834,0,0,0,3.286-1.5c1.259-.827,3.5-1.024,4.605-4.614a3.578,3.578,0,0,1,1.727-1.725q2.533-1.585,5.063-3.175" transform="translate(-430.447 -194.569)" fill="#ffbe9d"/>
            <path id="Path_132" data-name="Path 132" d="M500.824,258.531c1.317,4.694,6.795,37.239,6.795,37.239l-30.858,22.349,2.567,6.749s36.922-12.4,39.83-20.871,2.776-46.753-7.479-60.182c-3.264-4.275-9.807-6.432-9.807-6.432" transform="translate(-422.155 -237.382)" fill="#6e07b5"/>
            <path id="Path_133" data-name="Path 133" d="M475.768,279.368a19.752,19.752,0,0,0-2.155,1.658c-.881.929-1.541,1.958-2.487,3.069" transform="translate(-428.749 -188.249)" fill="none" stroke="#f2a181" stroke-miterlimit="10" stroke-width="0.25"/>
            <path id="Path_134" data-name="Path 134" d="M474.945,278.426a11.074,11.074,0,0,0-2.541,3.084,41.141,41.141,0,0,1-2.027,3.909" transform="translate(-429.626 -189.352)" fill="none" stroke="#f2a181" stroke-miterlimit="10" stroke-width="0.25"/>
            <path id="Path_135" data-name="Path 135" d="M473.515,277.664c-.3.477-1.569,1.673-1.825,2.174a19.715,19.715,0,0,0-1.758,5.024" transform="translate(-430.147 -190.243)" fill="none" stroke="#f2a181" stroke-miterlimit="10" stroke-width="0.25"/>
          </g>
          <path id="Path_136" data-name="Path 136" d="M496.105,242.018c-1.209-.708-2.136-1.454-2.923-.3-.419.614-.671,1.463-1.382,1.675a1.427,1.427,0,0,1-1.619-1.146,4.144,4.144,0,0,1,.265-2.177l1.458-4.69c.475-1.532.946-3.214.339-4.7a5.149,5.149,0,0,0-1.48-1.9,15.723,15.723,0,0,0-7.2-3.08,76.5,76.5,0,0,1-7.75-1.591,8.392,8.392,0,0,1-2.951-1.484,6.368,6.368,0,0,1-2.09-4.772,9.851,9.851,0,0,1,1.513-5.087,8.361,8.361,0,0,0,.775,1.767,6.564,6.564,0,0,1,1.411-2.214c.753,4.2,18.436,2.8,22.566,4.646,2.862,1.285,5.232,2.122,5.146,6.762a1.678,1.678,0,0,0,.56.74c2.537,2.331,3.635,5.165,3.954,9.375.391,5.15-2.611,10.727-5.549,14.974a9.594,9.594,0,0,1-2.183,2.611,5.8,5.8,0,0,1-4.11.929c-1.274-.245-3.787-.135-3.811-1.432-.017-.929,1.968-2.587,2.517-3.336" transform="translate(-418.516 -212.329)" fill="#3b2e7a"/>
          <path id="Path_137" data-name="Path 137" d="M480.332,231.736a1.62,1.62,0,0,0,2.424,1.838,5.59,5.59,0,0,0,3.527-4.33c.417-2.227-.779-4.455-2.819-3.876a3.011,3.011,0,0,0-1.925,2.932" transform="translate(-407.372 -197.179)" fill="#ffbe9d"/>
          <path id="Path_138" data-name="Path 138" d="M472.845,231.414l5.671,1.044a7.9,7.9,0,0,1-5.747,2.12" transform="translate(-416.176 -189.995)" fill="#f2a181"/>
        </g>
      </g>
      <g id="Group_282" data-name="Group 282" transform="translate(113.333 109.175)" opacity="0.3">
        <g id="Group_281" data-name="Group 281">
          <g id="Group_280" data-name="Group 280" transform="translate(23.576 21.578)">
            <path id="Path_139" data-name="Path 139" d="M267.621,189.57l7.6,3.825-3.8-9.322" transform="translate(-267.621 -184.073)" fill="#3939d3"/>
          </g>
          <path id="Path_140" data-name="Path 140" d="M256.758,189.287c0,8.37,7.19,15.155,16.06,15.155s16.06-6.784,16.06-15.155-7.19-15.157-16.06-15.157S256.758,180.916,256.758,189.287Z" transform="translate(-256.758 -174.13)" fill="#3939d3"/>
        </g>
        <path id="Path_141" data-name="Path 141" d="M262.346,179.433v10.834a1.136,1.136,0,0,0,1.7.983l9.384-5.417a1.136,1.136,0,0,0,0-1.966l-9.384-5.417A1.135,1.135,0,0,0,262.346,179.433Z" transform="translate(-250.219 -169.255)" fill="#fefefe"/>
      </g>
      <g id="Group_287" data-name="Group 287" transform="translate(653.988 224.417)" opacity="0.3">
        <g id="Group_284" data-name="Group 284">
          <g id="Group_283" data-name="Group 283" transform="translate(0.944 21.578)">
            <path id="Path_142" data-name="Path 142" d="M513.916,242.672l-7.6,3.825,3.8-9.322" transform="translate(-506.318 -237.175)" fill="#3939d3"/>
          </g>
          <path id="Path_143" data-name="Path 143" d="M538,242.389c0,8.37-7.19,15.157-16.06,15.157s-16.057-6.786-16.057-15.157,7.19-15.157,16.057-15.157S538,234.018,538,242.389Z" transform="translate(-505.883 -227.232)" fill="#3939d3"/>
        </g>
        <g id="Group_286" data-name="Group 286" transform="translate(6.629 4.979)">
          <g id="Group_285" data-name="Group 285" transform="translate(6.429)">
            <path id="Path_144" data-name="Path 144" d="M512.03,246.964c3.5.056,7.042.1,10.261-.109,1.02-.067,1.9-1.6.662-2.077a2.252,2.252,0,0,0,1.276-1.046,1.016,1.016,0,0,0-.618-1.365c1.213.284,1.693-1.534.744-2.12a2.664,2.664,0,0,0,1.024-1.55,1.518,1.518,0,0,0-.738-1.6,2.808,2.808,0,0,0-1.263-.206l-4.367-.03c.395-2.151.514-4.492-.645-6.38-.347-.569-1.285-1.25-2.029-.814-.7.412-.5,1.43-.467,2.075a7.19,7.19,0,0,1-3.972,6.623S512.067,244.058,512.03,246.964Z" transform="translate(-511.9 -229.526)" fill="#fefefe"/>
          </g>
          <rect id="Rectangle_106" data-name="Rectangle 106" width="5.29" height="8.593" transform="translate(0 8.836)" fill="#fefefe"/>
        </g>
      </g>
      <g id="Group_292" data-name="Group 292" transform="translate(398.934 110.362)" opacity="0.3">
        <g id="Group_289" data-name="Group 289">
          <g id="Group_288" data-name="Group 288" transform="translate(18.483 3.611)">
            <path id="Path_145" data-name="Path 145" d="M398.928,182.33l5.544-5.989-7.6,1.488" transform="translate(-396.875 -176.341)" fill="#3939d3"/>
          </g>
          <path id="Path_146" data-name="Path 146" d="M388.358,185.669c0,6.07,5.213,10.99,11.645,10.99s11.645-4.92,11.645-10.99S406.436,174.677,400,174.677,388.358,179.6,388.358,185.669Z" transform="translate(-388.358 -174.677)" fill="#3939d3"/>
        </g>
        <g id="Group_291" data-name="Group 291" transform="translate(5.116 3.611)">
          <g id="Group_290" data-name="Group 290" transform="translate(4.213)">
            <path id="Path_147" data-name="Path 147" d="M392.742,188.985c2.292.041,4.614.074,6.721-.078.669-.048,1.246-1.157.434-1.506a1.513,1.513,0,0,0,.836-.757.759.759,0,0,0-.406-.99c.8.206,1.109-1.113.49-1.539a1.962,1.962,0,0,0,.671-1.124,1.151,1.151,0,0,0-.484-1.161,1.679,1.679,0,0,0-.827-.15l-2.86-.022a7.187,7.187,0,0,0-.423-4.627c-.228-.412-.842-.907-1.33-.588-.456.3-.33,1.035-.306,1.5a5.312,5.312,0,0,1-2.6,4.8S392.766,186.88,392.742,188.985Z" transform="translate(-392.657 -176.341)" fill="#fefefe"/>
          </g>
          <rect id="Rectangle_107" data-name="Rectangle 107" width="3.466" height="6.231" transform="translate(0 6.407)" fill="#fefefe"/>
        </g>
      </g>
      <g id="Group_293" data-name="Group 293" transform="translate(443.082 11.734)" opacity="0.3">
        <path id="Path_148" data-name="Path 148" d="M439.312,157.123a17.131,17.131,0,1,0-3.9,3.594l6.652,3.548Z" transform="translate(-408.701 -129.231)" fill="#3939d3"/>
        <path id="Path_149" data-name="Path 149" d="M413.962,135.633a4.192,4.192,0,0,1,5.933.063l1.068,1.092,1.1-1.083a4.2,4.2,0,1,1,5.888,5.979l-4.082,4.019-.024.028a4.2,4.2,0,0,1-5.933-.063l-4.015-4.1A4.2,4.2,0,0,1,413.962,135.633Z" transform="translate(-404.022 -123.143)" fill="#fff"/>
      </g>
    </g>
  </g>
</svg>
