<svg xmlns="http://www.w3.org/2000/svg" xmlns:xlink="http://www.w3.org/1999/xlink" width="1920" height="462" viewBox="0 0 1920 462">
  <defs>
    <clipPath id="clip-path">
      <rect id="Rectangle_116" data-name="Rectangle 116" width="1920" height="462" transform="translate(3418 3070)" fill="#fff"/>
    </clipPath>
    <clipPath id="clip-path-2">
      <rect id="Rectangle_110" data-name="Rectangle 110" width="1920" height="813" fill="none"/>
    </clipPath>
  </defs>
  <g id="linear-double-1920x1080" transform="translate(-3418 -3070)">
    <g id="Mask_Group_4" data-name="Mask Group 4" clip-path="url(#clip-path)">
      <g id="Group_346" data-name="Group 346" transform="translate(3418)">
        <g id="Group_331" data-name="Group 331" transform="translate(0 3103)">
          <g id="Mask_Group_2" data-name="Mask Group 2" clip-path="url(#clip-path-2)">
            <g id="Group_322" data-name="Group 322" transform="translate(-375.523 0.46)">
              <path id="Path_159" data-name="Path 159" d="M-111.722-238.277c55.886-3.92,357.671-217.565,701.371-148.963s570.029,221.485,978.007,221.485,849.469-221.485,849.469-221.485V505.54H-111.722Z" transform="translate(231.195 400.809)" fill="#3c0170"/>
              <path id="Path_160" data-name="Path 160" d="M-111.722-238.277c55.886-3.92,357.671-217.565,701.371-148.963s570.029,221.485,978.007,221.485,849.469-221.485,849.469-221.485V505.54H-111.722Z" transform="translate(159.512 431.809)" fill="#6e07b5"/>
              <path id="Path_161" data-name="Path 161" d="M-111.722-238.277c55.886-3.92,357.671-217.565,701.371-148.963s570.029,221.485,978.007,221.485,849.469-221.485,849.469-221.485V505.54H-111.722Z" transform="translate(111.722 480.809)" fill="#3c0170"/>
            </g>
          </g>
          <rect id="Rectangle_111" data-name="Rectangle 111" width="1920" height="1097" transform="translate(0 766)" fill="#3c0170"/>
        </g>
        <g id="Group_332" data-name="Group 332" transform="translate(0 3215)" opacity="0.33">
          <g id="Mask_Group_2-2" data-name="Mask Group 2" clip-path="url(#clip-path-2)">
            <g id="Group_322-2" data-name="Group 322" transform="translate(-352.796 0.46)">
              <path id="Path_159-2" data-name="Path 159" d="M2417.124-238.277c-55.886-3.92-357.671-217.565-701.371-148.963S1145.725-165.756,737.746-165.756-111.722-387.241-111.722-387.241V505.54H2417.124Z" transform="translate(111.722 400.809)" fill="#3c0170"/>
              <path id="Path_160-2" data-name="Path 160" d="M2417.124-238.277c-55.886-3.92-357.671-217.565-701.371-148.963S1145.725-165.756,737.746-165.756-111.722-387.241-111.722-387.241V505.54H2417.124Z" transform="translate(183.406 431.809)" fill="#6e07b5"/>
              <path id="Path_161-2" data-name="Path 161" d="M2417.124-238.277c-55.886-3.92-357.671-217.565-701.371-148.963S1145.725-165.756,737.746-165.756-111.722-387.241-111.722-387.241V505.54H2417.124Z" transform="translate(231.195 480.809)" fill="#3c0170"/>
            </g>
          </g>
        </g>
      </g>
    </g>
  </g>
</svg>
